<?xml version="1.0" encoding="UTF-8"?>
<svg id="a" data-name="Layer 3" xmlns="http://www.w3.org/2000/svg" viewBox="0 0 500 460">
  <path d="M50.83,396.7h20.73c1.42-179.83,101.3-300.41,173.85-300.41s172.44,120.58,173.86,300.41h20.82c.34-6.89,.49-15.69,0-25.89-5.83-122.01-95.83-277.25-194.68-277.25S56.63,248.83,50.83,370.81c-.49,10.29-.33,19.12,0,25.89Z" style="fill: #c65000;"/>
  <rect x="161.36" y="407" width="127.66" height="5.16" style="fill: #c65000;"/>
  <rect x="243.73" y="434.34" width="139.82" height="5.43" style="fill: #c65000;"/>
  <rect x="387.9" y="395.12" width="112.1" height="4.75" style="fill: #c65000;"/>
  <rect y="395.12" width="112.1" height="4.75" style="fill: #c65000;"/>
  <rect x="316.61" y="412.98" width="106.82" height="5.9" style="fill: #c65000;"/>
  <rect x="73.61" y="415.94" width="59.1" height="5.9" style="fill: #c65000;"/>
  <rect x="126.38" y="431.43" width="92.99" height="5.25" style="fill: #c65000;"/>
  <rect x="198.79" y="455.42" width="101.74" height="4.59" style="fill: #c65000;"/>
  <g>
    <path d="M213.19,334.09c-1-3.77-4.8-2.38-5.8,.59l-1.6,5.35c-2.6,6.74-6-.59-6.6-3.77l-2-15.86v-5.35c.4-15.46,3-33.1-2.8-47.97-.6-1.78-4.4-10.7-5.4-12.69-.4-1.39-5.8-11.89-6.4-13.28-.2-.59-1-2.97-1-3.37l-3.2-19.03c-.4-1.98,1.6-2.18,1-3.77-.4-.79-1.6-.79-2.2-1.59-.2-.59-1.6-2.58-1.6-2.77v-1.59s-1-.79-1-.99c-2.8-4.56-4.2-10.7-3.2-15.86,.4-1.79,1.8-3.37,3.8-3.37h13.39c8.4,0,13.99,11.7,14.99,18.63,1,6.94,1,11.1,2.6,17.05,1.6,5.35,5.8-.4,6.6-2.58,.2-.79,2-5.75,2-6.34,.2-.2,.6-1.19,.6-1.19h.6c.4,.59,1.4,3.17,1.6,3.77v.99h.6s1.2-3.57,1.6-5.15c.2-1.59,.2-3.37-1.2-4.36,.4-.99,2.2-5.55,2.8-6.34,.2-.4,1.2-1.39,1.6-1.59-2.6-2.38-2.4-3.77-2.8-6.94-.6-7.14,20.99-13.28,24.19-1.59,1.4,9.71-3.6,17.05-1.6,27.16v21.21c0,2.78-.6,10.11-4.8,8.13-4.2-1.98,3-12.49-2.6-15.07-3.4-1.39-3.4,2.97-3.8,4.76-.2,1.19-.6,4.16-.6,4.36v32.51c0,2.18-1.8,2.97-3.8,2.58-.2,0-4.2-8.92-6.4-4.16-.2,.4-.6,2.18-.6,2.58l-1,18.63c0,.59-.4,2.77-.6,3.17-.4,1.19-2,1.39-2.6,2.18,1,1.19,2.6,.99,2.6,3.17,0,1.59-1.4,2.97,.6,4.36l1,21.21v4.16c0,1.19-1,10.11-1,11.3-.2,3.37,3.4,18.63-5.4,14.27-2.4-1.19,.8-21.41-.6-25.57Zm-38.59-140.34v.4h.6v-.4h-.6Zm5.4,19.62c2.4-1.19,.2-2.97,0-4.36v-3.57c-.2-2.38-2.2-2.38-2.2-4.96l-2.2,1.19c-.2,.2-.4,.59-.4,.59v4.16s.2,.4,.4,.59c2.8,1.98,1.4,2.97,3.2,5.35,.2,0,1,.79,1.2,.99Zm-2.2-18.44c.2,0,.2-.4,0-.4s-.2,.4,0,.4Zm1-3.77c.2,0,.2-.4,0-.4s-.2,.4,0,.4Zm4.4,7.73c0-2.78-2.8-2.38-2.8-1.59,0,.4,.4,1.79,.6,2.18,.6,.79,2.2,.99,2.2-.59Zm0,10.7c.4-1.59-1.2-2.38-1.6-3.77-1.2,.79-1.2,1.59-.6,2.77,.6,.59,1.2,1.59,2.2,.99Zm2.6,7.93c.4,.2,1.2,0,1.2-.4v-3.77c.2,0,5.4,1.19,4.2-.59-.2-.2-1.6-1.98-1.6-2.18-.4-1.39,2.4-2.58,1.6-6.34,0-.4,.4-1.98-.6-1.98-.8,.2-2.6,9.32-3.6,9.52-.2,0-2.6-.2-2.8,0-.2,.2-.8,3.17-.4,3.77,0,.2,1.6,1.79,2,1.98Zm.6-12.09c-.8-1.59-.8-3.57-.6-5.35h-1c-.8,.2-.2,6.74,0,6.94,3,1.98,4.2-2.58,1.6-1.59Zm1.6-2.78h.6c.2,0,.4-1.39,.4-2.18,0-.59-1.6-.59-1.6,0,0,.79,.4,2.18,.6,2.18Zm3.2,14.87h-1.6c-.2,0-.8-.4-1-.4-2.2,0,.4,3.77,1,4.16,3,2.38,1.4-2.38,1.6-3.77Zm-3.2,12.29c1,.99,3.6-7.53,0-6.34v6.34Zm1.6,3.37c.2,0,.2-.4,0-.4s-.2,.4,0,.4Zm6,5.15l.4,.59c.2-.2,3.4-1.98,3.8-2.77,.8-1.79-2.6-6.94-4.2-4.76,0,.2-.4,1.19-.6,1.19s-1.4-.59-1.6-.59c-2.8,0-1,2.77-.6,3.77,.6-.79,1.6-1.79,2.8-2.18v4.76Zm-2.8-11.7v.99h.6l-.6-.99Zm10.2,20.81c.8-1.19-1.2-1.98-1.6-2.77-.8-1.78,1.2-2.78,.6-4.76-.4-1.39-4.6-1.78-3.2,.59,.4,.59,1,1.98,1,2.18,.2,.4,.2,3.17,0,3.57,.8,.4,2.2,1.59,3.2,1.19Zm-2-13.88h1c-.2-.4-.8-.79-1-.59v.59Zm3.6,7.93c3.8-1.39-1.6-6.15-.4-.4,0,0,.2,.4,.4,.4Zm5.4,51.14h1.2c.2-.4-.2-.79-.6-.99-.2,0-.6,.2-.6,.4v.59Zm3.2,14.47c-.2-.99-1.8-.79-2-.59v.59c.2,.59,1.8,.79,2,0Zm-2,4.76l1,4.76c1.8-.2,.6-4.56-.6-5.35l-.4,.6Zm5.2-12.88c.2-.4,.4-1.98-.4-1.98-.4,.2-1.2,1.19-1.2,1.59,0,.6,1.6,.4,1.6,.4Zm.6,6.94c.8-.4,.8-1.19,0-1.59-.4,.2-.6,.79-.6,.99s.4,.6,.6,.6Zm9.8-94.16h-.6c-1.2,2.58-1.6,4.36,0,6.94,2,2.97,8.6-.99,.6-6.94Zm-.6-6.34v-1.19h-.6v.59c0,.2,.4,.59,.6,.59Zm.6,19.03c0,.2,.2,.59,.4,.59,2.8,.79,1.8-3.37-.4-2.58v1.98Zm3.6-27.16c.4-.4-.4-1.39-1-.99v.59c.2,.2,.8,.6,1,.4Zm0,4.96l1.6,1.59c2-.4,.2-6.34-1.6-2.77v1.19Z" style="fill: #c65000;"/>
    <path d="M259.77,332.1c-2.6,1.98-3,10.11-6,6.34-.2-.2-.4-.99-.4-.99-.4-1.19-1.2-4.16-1.2-4.36v-17.64l-2.6-8.33c-2.2-7.53,2.4-15.07,2.6-22.4v-13.88l-2.6-7.53c-1.6-4.76,.2-8.92,1-13.68,.6-3.17,1.2-8.72,1.2-11.3v-11.1c-.2-.99-3-8.13-3.4-9.12-1.8-5.95,2.6-10.51,1.6-16.45,0-.4-1-2.77-1-3.17-2.4-15.26,23.19-6.34,28.99-6.34,7.8,0,14.6-3.37,21.99,0,4.2,1.59,6.2,3.37,9.2,6.74,3.8,4.16,4.8,10.7,6.4,15.46,1.8,5.15,13.59,24.38,4.8,28.74-1.8,.99-2.2-1.79-3.2-.99,.4,.79,1,1.78,1,2.58-6.2,6.34-4,11.7-8,19.23-2,3.97-6.2,6.34-8.6,10.11-1.4,2.38-1.8,7.93-3.2,9.12-2.2,1.59-4.4-4.76-5.8-5.95-1.8-1.19-5.4-1.59-7-1.59h-8.6c-5.2,1.19-1.8,10.51-2.2,14.47l-1.6,11.1c-.8,5.75,6,10.11,4.2,16.06-.2,.79-2,4.56-2.6,5.15-.6,2.78,1.4,5.15,1,8.13-.2,2.58-3.8,4.16-4.8,6.94v7.33c0,.99,1.8,6.54-1,6.94-2.2,.2-3.2,.59-4.8-.59-6.2-3.97,10.2-20.62-5.4-19.03Zm-6.4-22.4v.59h.4v-.59h-.4Zm5.8-29.14c.2,0,.2-.4,0-.4s-.2,.4,0,.4Zm6-10.31c.6-.4,1.6-2.38,1.6-2.58v-7.93l2-2.77v-.59c-3.2,.59-3.6,0-2.6-2.58,.6,.79,1.6,.79,1.6-.59,0-.79-2.4-3.37-2.6-1.59v2.77c-.2,.79-2.4,1.98-2.4,1.59v-3.17c-2,1.78-2.4-.99-2.6-2.18l-.4,.59c-.2,0-.2,2.58,0,3.57,.2,2.38,.8,4.56,.4,6.94v2.18c.6,1.98,3.2,4.36,4.4,5.95l.6,.4Zm-5,38.85c.6,.2,1-.2,1.2-.4,.6-1.39,2.2-4.36,2.2-4.36l-.6-.59c-.2,0-.6,.4-.6,.59-.4,.79-2.2,2.97-2.2,3.17v1.59Zm1.8-62.24c.4,.4,1.4-.59,1-.99h-.6c-.2,.2-.4,.79-.4,.99Zm3.2,12.29c.2,1.19-1.6,6.74-2.8,4.16-1.6-3.37,2.4-5.75,2.8-4.16Zm-1.6-19.23c-.2,.2-1.6,.99-1.2,1.59,1,1.79,2.8-.99,1.2-1.59Zm4.2,34.1c1.2-3.97-3.6-.79-4.2-.6-.2,0-.6,.4-.6,.6,0,.59,4.8,.2,4.8,0Zm-2.2-25.57c.4,0,.4-.6,0-.6-.2,0-.2,.6,0,.6Zm11.8,6.34c5.8,.59,9.6-.99,12.39-6.34,1-1.79,2.6-4.96,2.8-7.34v-11.89c-.6-2.58-3.4-3.57-5-.99l-2,4.36c-2.2,3.37-4-1.98-3.8-3.77,0-.79,1-7.33,1-7.93,1.2-11.5-11.8-6.74-11.8-5.35v6.34c0,4.56,9.2,5.15,6,10.11l-2.2,3.17c-.8,2.18,.8,4.16,.6,6.34-.6,.99-2.4,5.35-2.8,6.34-.8,2.78,1.2,5.15,3.2,6.54,.2,.2,1.4,.4,1.6,.4Zm14.59,13.88c.2-.4,1.6-13.28,1.6-13.28-1-2.18-1.4-.99-1.6-3.77-.6-.79-2.6,4.56-2.8,4.76,0,.2-1.4,1.59-1.6,1.59-.2,.4-.4,2.97-.4,3.37-.4,1.59-3,1.39-2.2,3.17,.4,.59,1.8,4.76,2.2,5.35,.4,.99,4.4-.59,4.8-1.19Zm-1.2-55.31s1.6-.99,1.2-1.59c-.4-.2-1,.2-1.2,.59v.99Zm11.4,39.84c-1.4-.4-2.6,1.39-3.8,1.59-.8,.2-6.2,1.59-2.6,3.17,2.8,1.59,7.39-1.19,6.4-4.76Zm-3.8,0c.4,.2,1-.2,1-.4l-.4-.59c-.2,0-.6,.4-.6,.59v.4Zm2.2-10.11c.4,.2,1.4,.2,1.6-.4l-1.2-1.19s-.4,.4-.4,.6v.99Zm5.4-.4s1,1.39,1.6,.99c.2-.79-1-2.78-1.6-2.18v1.19Zm1.6-6.54c-.2,.59,.2,1.39,.4,1.59,2.4,3.17,4.2-2.38-.4-1.59Zm8.6,2.77h.4c.4-1.19-1.2-3.77-2-4.36-1,.2-.8,1.79-.6,2.18,.2,.2,1.6,1.78,2.2,2.18Zm-.6-7.53c.8-.4,1.8-1.59,.6-2.18-.4,.4-1.2,1.39-1.2,1.79,0,0,.4,.4,.6,.4Z" style="fill: #c65000;"/>
  </g>
  <g style="isolation: isolate;">
    <path d="M136.07,400.57c-3.02,0-5.65-.32-7.9-.97-2.26-.64-4.15-1.57-5.68-2.76-1.54-1.19-2.71-2.64-3.52-4.33-.82-1.69-1.29-3.59-1.43-5.71h3.22c.33,2.03,.94,3.72,1.83,5.07,.9,1.35,2,2.42,3.32,3.22,1.32,.8,2.82,1.36,4.5,1.69,1.68,.33,3.48,.49,5.38,.49s3.77-.21,5.36-.64c1.59-.43,2.95-1.05,4.07-1.86,1.13-.81,1.99-1.79,2.59-2.93s.9-2.42,.9-3.85c0-1.51-.26-2.78-.77-3.81-.52-1.03-1.38-1.93-2.61-2.7s-2.83-1.46-4.83-2.06c-2-.6-4.48-1.22-7.44-1.86-2.45-.55-4.54-1.18-6.3-1.9-1.75-.72-3.2-1.55-4.34-2.49-1.14-.95-1.98-2.03-2.53-3.26s-.81-2.64-.81-4.27c0-1.76,.37-3.37,1.1-4.82,.73-1.46,1.77-2.71,3.12-3.75,1.34-1.04,2.96-1.86,4.85-2.43,1.89-.58,3.97-.87,6.25-.87s4.37,.27,6.28,.8,3.57,1.31,4.99,2.33c1.43,1.02,2.58,2.25,3.47,3.71,.88,1.46,1.45,3.1,1.69,4.95h-3.14c-.3-1.21-.79-2.34-1.47-3.38-.68-1.04-1.56-1.94-2.63-2.7-1.07-.76-2.35-1.35-3.83-1.77-1.48-.43-3.17-.64-5.07-.64-3.99,0-7.02,.74-9.07,2.23-2.05,1.48-3.08,3.52-3.08,6.1,0,1.18,.19,2.21,.57,3.09,.38,.88,1.02,1.67,1.93,2.37,.91,.7,2.11,1.32,3.61,1.85s3.36,1.04,5.58,1.51c1.3,.27,2.65,.56,4.03,.86,1.39,.3,2.74,.66,4.06,1.07,1.32,.41,2.57,.92,3.77,1.53,1.19,.61,2.23,1.35,3.12,2.23,.88,.88,1.59,1.93,2.12,3.15s.8,2.67,.8,4.35c0,1.92-.4,3.69-1.2,5.3-.8,1.61-1.92,3-3.34,4.16-1.43,1.17-3.12,2.08-5.09,2.72-1.97,.64-4.11,.97-6.42,.97Z" style="fill: #c65000;"/>
    <path d="M175.36,395.62c-1.11,.99-2.2,1.81-3.26,2.45-1.06,.65-2.1,1.15-3.12,1.53-1.02,.37-2.03,.62-3.04,.76-1.01,.14-2.03,.21-3.06,.21-1.39,0-2.68-.21-3.87-.64-1.19-.43-2.23-1.03-3.1-1.82-.87-.78-1.55-1.73-2.06-2.84-.5-1.11-.76-2.34-.76-3.69,0-3.65,1.54-6.5,4.63-8.53,3.08-2.03,7.71-3.05,13.88-3.05h3.75c0-1.4-.08-2.69-.24-3.87-.16-1.18-.54-2.21-1.14-3.07-.6-.87-1.48-1.55-2.65-2.04-1.17-.5-2.76-.74-4.77-.74-2.96,0-5.18,.47-6.66,1.4-1.48,.93-2.36,2.35-2.63,4.25h-3.22c.33-3.02,1.49-5.27,3.51-6.74,2.01-1.47,5-2.21,8.96-2.21,2.2,0,4.07,.28,5.6,.83,1.54,.55,2.78,1.34,3.75,2.37,.96,1.03,1.66,2.28,2.1,3.75,.43,1.47,.65,3.13,.65,4.97v20.86h-3.26v-4.12Zm0-12.33h-4.93c-4.73,0-8.25,.69-10.57,2.06-2.32,1.37-3.48,3.34-3.48,5.89,0,1.9,.73,3.37,2.2,4.43,1.47,1.06,3.48,1.59,6.03,1.59,1.12,0,2.19-.17,3.24-.51,1.05-.34,2.03-.79,2.95-1.34,.92-.55,1.77-1.16,2.55-1.83s1.45-1.33,2.02-1.96v-8.33Z" style="fill: #c65000;"/>
    <path d="M186.25,399.75h-3.26v-31.95h3.26v31.95Zm.04-39.98h-3.26v-5.15h3.26v5.15Z" style="fill: #c65000;"/>
    <path d="M193.26,372.54c1.06-1.26,2.1-2.27,3.12-3.01,1.02-.74,2.01-1.31,2.98-1.69,.96-.38,1.88-.62,2.75-.72,.87-.1,1.68-.15,2.44-.15,6.49,0,9.74,3.88,9.74,11.63v21.15h-3.26v-20.86c0-1.48-.13-2.77-.39-3.85-.26-1.09-.68-1.98-1.26-2.68s-1.34-1.22-2.28-1.57c-.94-.34-2.09-.52-3.44-.52-1.79,0-3.55,.54-5.28,1.61-1.73,1.07-3.43,2.58-5.11,4.53v23.33h-3.26v-31.95h3.26v4.74Z" style="fill: #c65000;"/>
    <path d="M228.39,400.03c-.46,.05-.92,.1-1.39,.12-.46,.03-.92,.04-1.38,.04-1.41,0-2.55-.2-3.4-.6-.85-.4-1.51-1-1.96-1.79-.45-.8-.74-1.79-.88-2.99-.14-1.19-.2-2.59-.2-4.18v-19.54h-4.03v-3.3h4.03v-8.37h3.26v8.37h5.17v3.3h-5.17v19.83c0,1.32,.09,2.37,.28,3.15,.19,.78,.47,1.39,.85,1.81,.38,.43,.85,.7,1.41,.83,.56,.12,1.19,.18,1.89,.18h.77c.22,0,.46-.01,.73-.04v3.17Z" style="fill: #c65000;"/>
    <path d="M285.74,399.75h-26.28v-45.14h3.26v41.84h23.02v3.3Z" style="fill: #c65000;"/>
    <path d="M299.4,366.97c2.15,0,4.09,.38,5.83,1.14,1.74,.76,3.22,1.85,4.44,3.3,1.22,1.44,2.16,3.2,2.81,5.28s.98,4.42,.98,7.03-.33,5.04-1,7.13c-.67,2.09-1.61,3.85-2.83,5.3-1.22,1.44-2.7,2.54-4.44,3.3-1.74,.76-3.67,1.13-5.79,1.13s-4.04-.37-5.76-1.11c-1.73-.74-3.2-1.83-4.42-3.28-1.22-1.44-2.17-3.21-2.85-5.3-.68-2.09-1.02-4.48-1.02-7.17s.33-5,1-7.07c.66-2.08,1.61-3.83,2.83-5.26,1.22-1.43,2.7-2.52,4.44-3.28,1.74-.76,3.66-1.14,5.78-1.14Zm0,30.3c1.6,0,3.06-.28,4.38-.85,1.32-.56,2.45-1.41,3.4-2.55,.95-1.14,1.69-2.56,2.22-4.25,.53-1.69,.8-3.66,.8-5.91s-.26-4.19-.8-5.88c-.53-1.69-1.27-3.09-2.22-4.2-.95-1.11-2.08-1.95-3.4-2.51-1.32-.56-2.78-.85-4.38-.85s-3.1,.28-4.42,.85c-1.32,.56-2.45,1.4-3.4,2.51-.95,1.11-1.68,2.52-2.2,4.2-.52,1.69-.77,3.65-.77,5.88s.26,4.22,.77,5.91c.51,1.69,1.25,3.11,2.2,4.25s2.08,1.99,3.4,2.55c1.32,.56,2.79,.85,4.42,.85Z" style="fill: #c65000;"/>
    <path d="M336.32,395.46c-.79,.96-1.68,1.77-2.67,2.41-.99,.64-2,1.17-3.02,1.57s-2.03,.69-3.02,.87c-.99,.18-1.88,.27-2.67,.27-6.46,0-9.7-3.89-9.7-11.66v-21.11h3.26v20.82c0,2.99,.55,5.19,1.65,6.57s3.01,2.08,5.72,2.08c1.96,0,3.8-.55,5.52-1.65,1.72-1.1,3.36-2.67,4.91-4.7v-23.12h3.26v31.95h-3.26v-4.29Z" style="fill: #c65000;"/>
    <path d="M346.85,399.75h-3.26v-31.95h3.26v31.95Zm.04-39.98h-3.26v-5.15h3.26v5.15Z" style="fill: #c65000;"/>
    <path d="M361.23,400.57c-7.74,0-11.97-3.15-12.67-9.44h3.3c.24,1.92,1.12,3.43,2.63,4.51s3.74,1.63,6.7,1.63c1.44,0,2.7-.16,3.79-.47s1.99-.74,2.71-1.28,1.26-1.17,1.61-1.92c.35-.74,.53-1.54,.53-2.39s-.14-1.58-.43-2.19-.8-1.15-1.55-1.65c-.75-.5-1.76-.97-3.06-1.42-1.29-.45-2.94-.94-4.95-1.46-1.71-.44-3.23-.89-4.56-1.36-1.33-.47-2.45-1.04-3.36-1.73-.91-.69-1.6-1.52-2.06-2.49-.46-.98-.69-2.19-.69-3.65,0-1.26,.26-2.41,.79-3.44,.53-1.03,1.27-1.9,2.22-2.62,.95-.71,2.11-1.26,3.46-1.65,1.36-.38,2.87-.58,4.52-.58,3.75,0,6.59,.64,8.54,1.92,1.94,1.28,3.02,3.29,3.24,6.04h-3.3c-.22-1.59-.97-2.77-2.26-3.52-1.29-.76-3.21-1.14-5.77-1.14-1.19,0-2.3,.11-3.3,.33-1.01,.22-1.87,.54-2.59,.97-.72,.43-1.29,.96-1.69,1.61-.41,.65-.61,1.38-.61,2.21,0,.47,.08,.95,.25,1.44,.16,.49,.58,1,1.24,1.53,.67,.52,1.66,1.05,3,1.59,1.33,.54,3.15,1.09,5.46,1.67,1.82,.47,3.4,.96,4.75,1.46,1.34,.51,2.46,1.11,3.34,1.81s1.54,1.52,1.98,2.45c.43,.93,.65,2.03,.65,3.3,0,1.4-.28,2.71-.84,3.94s-1.34,2.27-2.36,3.15c-1.02,.88-2.26,1.57-3.73,2.08-1.47,.51-3.11,.76-4.93,.76Z" style="fill: #c65000;"/>
  </g>
  <g>
    <path d="M257.01,155.4c-.6,2.06-1.2,4.11-1.8,6.17,.13-2.55,.26-5.11,.48-9.69l-3.37,9.24,2.1,2.06c-6.85,11.68-17.26,15.98-28.78,13.8-11.22-2.13-14.81-12.66-15.84-24.53-3.11-1.32-6.44-2.73-10-4.23-1.76,3.22-3.51,6.42-5.35,9.78-1.33-1.35-2.53-2.57-3.97-4.05-2.27,4.62-4.49,9.12-6.96,14.14-1.79-6.52-3.47-12.61-5.2-18.89-6.25,.35-12.47,.7-18.99,1.07,.82,2.4,1.53,4.47,2.39,6.99-2.21-.99-4.14-1.86-6.84-3.07,5.5,8.05,10.47,15.32,15.44,22.6-.13,.14-.25,.28-.35,.44-5.36-.8-10.59-5.24-16.2-.41,2.3,3.02,4.76,6.23,7.72,10.11-13.56-6.32-26.35-12.29-40.46-18.86,1.78,5.03,2.96,8.35,4.32,12.19-1.11-.06-2.05-.12-3.29-.19,.32,5.38,.63,10.82,1,17.1-2.33-3.88-4.31-7.18-6.51-10.85-1.3,4.51-2.49,8.61-3.99,13.81-1.61-9-3.03-16.92-4.37-24.42-7.9,18.35-5.51,39.9-13.23,59.91-.6-6.36-1.1-11.63-1.7-17.9-5.03,15.92-9.75,30.9-15.33,48.57,2.06-15.89,3.75-28.98,5.57-43.01-3.36,5.68-6.28,10.64-10.28,17.4,5.38-27.9-5.76-52.28-5.32-79.02-3.33,6.46-6.16,11.96-9.98,19.37,1.82-11.81,3.28-21.29,4.76-30.92-1.06-.41-1.98-.77-3.19-1.24l3.11-15.3c-8.51,3.8-16.64,7.42-25.41,11.33,2.24-4.89,4.24-9.25,6.34-13.82-4.88-.65-9.55-1.27-15.45-2.06,6.7-2,13.83,1.27,17.22-6.69-8.49-4.89-15.99-13.14-27.11-10.26,7.18-1.14,13.68-7.91,21.1-2.29,5.74-9.06-3.32-12.33-5.47-19,3.07,2.24,5.83,4.25,8.74,6.37l2.87-5.06c7.06,1.38,10.84-5.73,16.99-7.06l2.82-18.66c.85,4.52,1.49,7.94,2.14,11.43l2.27-3.04,1.72,3.38c1.75-3.96,3.4-7.67,5.2-11.74l2.55,4.04c6.42-2.15,11.49-5.9,13.15-14.1,15,1.77,21.91-11.95,31.92-19.73,.01,1.27,.02,2.54,.03,3.81-3.73,5.64-7.45,11.28-11.7,17.69,4.1-1.42,7.38-2.55,11.75-4.06-3.41,3.35-5.91,5.81-10.28,10.11,5.17-.27,8.3-.44,11.62-.61l-1.6,3.81c6.26-3.68,9.47,1.08,13.05,4.9,1.13-2.55,2.14-4.81,4.74-10.67-1.38,6.8-1.94,9.6-2.64,13.04,4.03-1.89,8.62,.8,11.67-3.65,1.65,.67,3.3,1.34,4.95,2.01,0,.37,.02,.74,.03,1.11-2.03,1.19-4.06,2.38-6.26,3.66l-2.1-3.68c-.64,3.23-1.05,5.32-1.64,8.26-.83-2.21-1.37-3.66-2-5.37-1.7,.76-3.27,1.47-5.45,2.44,1.67,23.71,3.33,47.31,4.96,70.45h4.54l1.31-2.17c.13-2.07,.22-3.57,.31-4.86,1.6,2.11,3,3.96,4.47,5.89,1.15-.58,2.05-1.03,2.88-1.45-.19-4.06-.38-7.91-.65-13.59,7.7,13.71,17.64,11.59,28.06,8.42,.23,3.07,.43,5.74,.63,8.32,1.04-.1,1.91-.18,2.96-.28,.37-1.5,.75-3.06,1.21-4.97,1.04,1.47,1.86,2.64,3.77,5.35v-14.03c6.63,4.17,12.28,7.72,17.96,11.3,2.64-4.45,4.73-8.67,3.65-13.69-4.77-4.36-9.42-8.61-13.37-12.22,4.83-9.85,9.3-18.94,13.76-28.04l3.51-3.5c-7.54,2.6-14.51-1.45-19.42,5.26-1.41,3.09-2.82,6.19-4.39,9.63v-13.2c-3.78-3.68-7.36-7.18-11.25-10.98-.39,.82-.87,1.85-1.36,2.89v45.55c.45,2.23,.17,.83-.13-.67-6.17,3.28-13.23,4.84-15.95-3.02-4.98-14.37,2.8-23.34,13.52-29.95-.47-1.25-.92-2.47-1.35-3.69,.41-1.08,.8-2.15,1.3-3.55l-2.34,.42c.65-3.72,1.28-7.34,1.98-11.36-8.21,.81-14.48,4.23-19.91,11.14,.28-4.13,.5-7.4,.72-10.62l-2.37-.78c.08-1.33,.16-2.54,.23-3.76,.87-.07,1.74-.14,4.84-.39-3.65-.28-5.05-.39-6.46-.5-1.88-1.18-3.76-2.36-5.64-3.54h0l-1.11-1.52c-.6-.79-1.2-1.57-1.85-2.43-7.1,3.24-9.81-2.39-12.75-7.75-2.29,1.02-4.04,.25-5.28-2.07-5.67-10.79-2.3-21.14,.98-31.65,4.06-13,12.81-15.48,24.66-12.6l-1.79-2.27,13.77,1.5c-.24-4.01-.44-7.3-.63-10.41,2.64,2.11,1.97,5.48,1.08,9.19,3.52-2.06,3.97-10.16,9.88-5.39,.22,.28,.45,.55,.67,.83v-.02l.55,1.25v-.02c-3.85,4.14-7.01,8.44-2.28,14.35-2.8,.18-5.1,.32-7.52,.48-1.86-1.76-3.94-3.73-5.99-5.67-5.52,1.32-11.47,1.78-15.84,6.74-.88,1.27-1.77,2.55-2.65,3.82l.61,.51c.82-1.22,1.65-2.44,2.47-3.67,10.97-8.59,18.77-5.66,24.01,7.88-.73-2.32-1.45-4.65-2.33-7.47h9.73c3.52-1.21,5.85,4.05,9.86,5.5-3.91-3.17-7.82-6.34-14.41-11.69l11.72,2.07c.32,.03,.65,.06,.97,.09,2.96,3.46,5.92,6.93,8.88,10.39v-.04c.33,.75,.67,1.49,1,2.24,.57,1.89,1.14,3.78,1.72,5.67-1.98,.86-3.96,1.73-9.94,4.34,7.14-1.23,10.08-1.74,13.69-2.36-.89,1.56-1.53,2.66-2.16,3.76-.05-.06-.1-.12-.15-.17l.19,.13c-1.78,2.58-3.57,5.17-5.35,7.75,4.24-4.37,8.88-6.56,14.59-3.9,.16,.23,.33,.46,.49,.7l1.69,1.24c.8,1.09,1.6,2.18,2.41,3.27l.6-.65c-.93-.97-1.87-1.94-2.8-2.91-.53-.44-1.06-.87-1.59-1.31-.2-.18-.4-.37-.6-.55l.94-2.24-7.25-2.19c2.87-5.85-5.01-14.32,3.58-18.82,.68-.24,1.36-.48,2.04-.72,.81,.96,1.63,1.93,2.61,3.09l-4.11,1.98c-.3,1.78-.61,3.55-.91,5.33,.27,.25,.55,.49,.82,.74h0c2.6,4.21,6,4.2,10.73,1-1.17,1.9-1.49,2.43-2.02,3.3,10.21-4.28,19.47,1.77,24.17,16.06,3.47,10.54,3.36,20.57-6.47,28.45-.63,3.03-1.27,6.96-6.69,9.97,5.99-2.04,6.6-6.2,8.12-9.95,4.07,.34,4.38-5.01,7.49-6.41-.1,1.47-.2,2.93-.34,4.95l1.3,2.59c5.2,.33,10.23,.66,16.14,1.03,4.64,23.46,9.28,46.87,14.02,70.82,.33,.07,1.46,.31,2.61,.56,.95-1.71,1.76-3.19,2.65-4.8,.89,.79,1.75,1.55,2.82,2.51v-6c1.33,1.88,2.06,2.9,2.74,3.86-.2,1.62-.37,3.08-.49,4.01h4.35c-1.75-21.71-3.49-43.39-5.26-65.27,3.63,1.19,7.2,2.37,11.57,3.81-2.98,.52-2.86,2.2-2.51,4.3l5.04-3.21c-2.58,16.45-5.11,32.55-7.69,49.01l2.34-.75c.36-1.69,.68-3.13,1.3-6.02,.34,2.37,.45,3.18,.58,4.07,.71-.42,1.21-.72,1.71-1.01,.44,1.03,.79,1.84,1.95,4.53,1.25-4.5,2.08-7.48,2.89-10.4,7.37,5.77,14.64,11.48,24.13,18.91-2.75-3.89-3.81-5.39-5.43-7.68,1.98,.72,3.05,1.11,3.86,1.41,1.03-3.45,1.98-6.65,2.38-8.03-5.44-6.68-10.1-12.41-14.56-17.9,4.95-4.55,9.74-8.96,14.91-13.71v7.29l-2.36,2.33c.6,1.6,1.2,3.2,1.85,4.93-.29,.79-.65,1.79-1.06,2.9,.95-.3,1.66-.52,2.79-.87,.32,8.06,.62,15.68,.91,23.06,5.11-2.96,10.73-6.22,16.17-9.37v34.86l1.34-3.18c1.99,5.04,4.22-3.09,6.18,.58,.95-.72,1.86-1.4,2.8-2.1,.72-5.91,1.43-11.77,2.16-17.75,3.75-2.07,7.33-4.04,11.17-6.16,1.54,7.32,2.98,14.17,4.45,21.17,1.79-.88,3.28-1.62,4.28-2.11,.78-1.94,1.38-3.41,2.11-5.22-.07-1-.18-2.49-.3-3.98,3.38,14.55,1.8,29.12,.2,43.74,1.33,.74,2.52,1.41,3.73,2.08,1.58-1.95,2.96-3.66,4.5-5.57,.82,1.74,1.48,3.12,2.36,5,.43-2.95,.77-5.27,1.19-8.15,3.58,4.33,2.02,8.17,.37,12.36l2.51-1.47c.89,.86,1.6,1.56,2.87,2.8,4.28-31.1,8.47-61.54,12.69-92.15,5.09,4.05,10.27,8.18,15.79,12.57,.13-5.35,.58-10.24-2.97-14.29,1.46-.94,2.63-1.7,3.81-2.46,1.19-5.81-1.3-11.96,2.04-17.42-18.53-13.7-37.13-26.43-57.25-36.43v5.73c-1.58-.44-2.95-.83-4.31-1.21-.46,4.25-.89,8.28-1.34,12.47h3.22c1.73,2.18,3.41,4.31,6.54,8.27-4.48-2.25-7.05-3.55-9.77-4.91,0,1.37,0,2.48,0,3.61,.63,.53,1.26,1.04,2,1.64-.74,1.19-1.35,2.18-2.08,3.36,.27,1.65,.56,3.44,.84,5.2,3.4,1.3,6.65,2.55,10.12,3.89-2.22,2.1-4.08,3.86-5.78,5.47h-4.14c.2-1.43,.38-2.7,.68-4.81-2.42,1.57-4.32,2.8-5.6,3.63-.7,3.4-1.22,5.91-1.73,8.42l-.96-.2c.11-2.03,.21-4.07,.35-6.64-3.28,1.01-6.65,2.05-9.57,2.95-.58,1.83-.93,2.92-.86,2.71-3.69,1.25-6.38,2.16-9.35,3.17,.28-2.27,.53-4.25,.79-6.41,5.16-1.75,10.16-3.45,15.29-5.19,.32-.92,.69-1.96,1.03-2.93-.81-.85-1.57-1.65-2.52-2.65,3.05-1.13,2.36-3.64,2.49-6.26-8.12,2.12-16.01,4.19-23.85,6.24,.52-9.32-2.56-16.1-12.01-17.6-5.83,.98-11.67,1.96-17.5,2.94-2.2,1.07-4.39,2.15-6.69,3.27-.31-.66-.66-1.43-1.02-2.21-.07-.35-.14-.71-.2-1.06,.02-.64,.05-1.28,.07-1.92,.15-.6,.3-1.21,.45-1.82-3.83,1.05-7.44,2.04-11.05,3.03-2.59-1.65-5.19-3.29-7.78-4.94-.83-.93-1.65-1.87-2.48-2.8-7.58-9.65-10.04-20.5-6.21-32.82,.22-.3,.43-.59,.63-.9-.22-.12-.42-.22-.63-.33-.11-.11-.21-.22-.32-.34,.11,.1,.22,.22,.33,.33v1.27c-3.74,4.78-3.03,10.76-3.4,15.77-3.11,5.67-7.78,.64-11.21,2.97-.55,.21-1.1,.42-1.65,.63-.2,.09-.41,.17-.61,.26h-.04c-11.48-2.06-15.35-13.52-21.78-21.81h0c0-.32,0-.63-.01-.94v.02c.18-1.24,.37-2.48,.55-3.71v.02c.18-.83,.37-1.66,.55-2.48v.02c.72-2.09,1.45-4.17,2.18-6.26,1.76-2.22,3.53-4.44,5.29-6.66,2.42-.7,4.84-1.39,7.26-2.09h10.66c-3.5-.48-2.51-.34-1.17-.16l.34-5.88c1.05-.53,1.35-3.66,3.58-1.37,.41,.73,.81,1.46,1.15,2.06-4.57,2.97-3.84,6.85-1.81,11.07l-2.88,.9c-1.21-.85-2.34-1.64-3.47-2.46,.33-.76,.65-1.51,1.06-2.44-2.03,.76-3.77,1.41-5.52,2.07-.31-.11-.62-.22-1.83-.65l1.54,1.03,.65,2.45c2.8-.78,4.86-.13,6.2,1.99,2.82-.23,5.37-.43,7.69-.62-.54-1.66-1.04-3.19-1.54-4.72l8.26,2.9c.68,1.4,1.41,2.88,2.13,4.36,.19,.87,.39,1.74,.58,2.61v-.02c-.26,1.19-.5,2.39-.89,4.24,2.29-2.3,4.14-4.14,5.98-5.99-.73-.72-1.46-1.45-2.19-2.17l.48-.45c1.6-.12,3.19-.25,4.79-.37,3.17-.31,6.33-.63,9.74-.96,.98,3.2-2.24,3.42-3.24,5.05h13.19c5.92-7.02,13.03-6.38,20.81-2.93-5.53-2.12-11.05-4.24-18.68-7.16l2.88,2.81c-2.15,1.79-4.23,3.52-5.84,4.86h-8.47c6.25-6.62,1.9-11.8-.86-17.2h0l.56-.61h0l.55-.64-.02,.02h3.89l-.02-.03,.74,.74c1.99,2.15,3.98,4.29,5.96,6.44,4.62,4.56,8.61,.08,12.83-1.11,1.77-.18,3.53-.36,5.3-.53-1.69,.73-3.37,1.46-5.06,2.19,15.27-3.91,23.65,5.62,28.36,19.42,4.03,11.8,.75,23.05-6.14,32.33l-3.29,.24,.03-.02c-.57,1.02-1.14,2.04-1.71,3.05h0l-.56,.61h0l-.56,.62h0l-.56,.62h0c-.59,.35-1.18,.71-1.77,1.08-1.72-.22-3.45-.44-5.18-.65-.66-.61-1.32-1.22,1.14,1.05-2.96-1.45-2.21-1.08-1.46-.72,1.78,1.61,3.59,2.83,5.68,.55l.77,.93c-.12,1.08-.23,2.15-.3,2.77,8.85,4.29,17.36,9.19,26.85,3.68-2.94-3.18-6.13-6.63-10.17-11.01,4.38,1.45,7.6,2.51,11.3,3.74-.74-2.8-1.39-5.27-2.16-8.17h9.97c.98-2.09,1.82-3.89,2.73-5.84-2.28-5.56-4.58-11.14-7.51-18.27,5.91,6.01,10.8,10.97,18.28,18.58-1.06-1.29,.3,.37,2.45,2.97-.88-3.81-1.47-6.38-2.48-10.77,3.02,4.79,5.09,8.06,7.36,11.67,3.06-6.04,6-11.85,9.52-18.81-1.38,8.17-2.56,15.12-3.8,22.45,6.87-2.23,13.42-4.36,20.6-6.7-2.68,4.66-5.01,8.73-7.42,12.92,3.92,2.46,8.34,3.89,10.81,9.24,3.5-2.46,6.75-4.75,10.13-7.12-.18,3.24-.38,6.82-.56,10.14,3.13,5.65,7.99,7.35,13.65,7.67-1.37,2.26-2.47,4.07-3.8,6.26,7.32,.47,14.12,.92,22.41,1.45-9.34,2.56-17.28,4.73-25.74,7.04,4.47,4.26,8.55,8.15,12.79,12.19v16.97c4.85,3.35,9.64,6.67,14.82,10.24-15.83,.07-31.07-5.21-47.11-1.55,3.08,3.09,5.79,5.79,8.97,8.98h-8.92c-5.73,14.98,3.02,26.25,6.77,38.69-.12,.13-.23,.26-.35,.39-2.73-1.84-5.45-3.69-8.57-5.8,.39,4.75,.74,9.05,1.12,13.62h-7.65c-1.84,19.21,1.48,37.94,2.1,57.96-4.36-13.36-8.37-25.66-12.51-38.35-1.09,3.05-2.05,5.74-2.97,8.33-1.3-6.37-2.6-12.75-4.02-19.69-6.44,9.37-9.18,19.55-12.91,31.99,.69-23.05,1.88-43.62-3.99-63.93-2.26,2.78-4.48,5.53-7,8.63-.88-2.46-1.67-4.64-2.6-7.23-6.5,5.1-12.85,10.07-20.3,15.91,1.31-13.61,2.49-25.92,3.68-38.31-8.41,4.93-16.94,9.93-26.49,15.53,1.3-3.22,2.13-5.26,3.12-7.71-3.85,.76-7.33,1.44-10.95,2.16-1.19-4.76-2.33-9.32-3.69-14.79-1.09,5.41-2,9.94-2.97,14.79-2.2-1.09-4.28-2.11-6.86-3.39,1.61,5.3,3.11,10.24,4.86,15.98-8.49-5.5-16.46-10.67-24.51-15.88-4.54,.99-9.13,1.99-14.3,3.12,2.96-2.87,5.51-5.35,8.49-8.25-3.62-2.83-6.34-4.97-9.13-7.15-.17,2.35-.32,4.4-.46,6.45,.07-12.72-6.51-18.4-20.17-20.7,3.6,2.42,4.83,3.23,6.05,4.05-2.91-1.31-2.89,1.78-3.35,2.82-.4,.89,.49,2.51,.84,3.8,.01,.06,.29,.02,.53,.04l-.12-2.35c2.29,.31,4.33,.59,6.08,.83-1.77,3.33-3.34,6.28-5.1,9.58-.28-2.46-.53-4.63-.81-7.09-.94-.52-2.06-1.12-3.05-1.66-2.09,1.47-3.93,2.77-5.78,4.07l-.15,2.39-1.49-1.55c-2.01,1-3.71,1.85-5.58,2.78v7.29c-.3-4.18-.4-5.56-.52-7.12-3.49,.56-7.43-1.08-9.44,9.7,.89-6.95,1.08-8.44,1.23-9.61-1-1.67-1.86-3.13-2.74-4.56-6.24,7.71-3.35,18.69,6.96,27.88,4.94,.64,9.09,4.08,14.04,1.93-.78-.7-1.44-1.29-3.35-3,4.75,2.73,8.15,2.68,11.78,.5l-2.95-2.48c-5.79-.11-11.53,1.63-16.2-4.57h11.55l2.48,2.04c-1.42-3.19-2.33-5.26-4.46-10.06,2.7,4.46,3.85,6.36,5.47,9.04l1.54-3.43c2.55-2.36,4.64-4.29,6.96-6.43l2.07-.11c.49-1.33,.93-2.53,.44-1.19v-13.07l-.04,.04c2.25,4.48,4.51,8.96,6.76,13.44ZM142.97,14.23l-1.23,1.07-1.98,1.64,.76,.81c.54-.66,1.09-1.31,1.63-1.97,.37-.4,.74-.8,1.11-1.2l1.1-.62c3.27-.38,6.55-.77,10.07-1.18-3.69-1.35-7.08-1.45-10.36,.79l-1.09,.65Zm94.2,.26c-.44,.21-.88,.43-.1,.05-.57,.75-.25,.33,.07-.09,.15-.09,.29-.18,.08-.05,.1-.2,.03-.06-.04,.09Zm-6.01,31.84l-.66-.48c-4.74-5.12-10.32-7.02-16.91-5.07,6.6-1.96,11.58,2.29,16.95,5.03l.32,.87c.9,1.08,1.8,2.16,2.71,3.24l.53-.59c-.98-1-1.95-2-2.93-2.99Zm7.62-33.13c1.67,0,3.34,0,.23,0,3.05-.68,1.43-.32-.18,.04-.15,.09-.3,.17-.09,.05-.1,.19-.02,.05,.05-.09Zm37.05,26.51c.25-1.13,.5-2.26,1-4.5-1.82,2.99-3.06,5.02-5.08,8.35,1.87-1.27,2.45-1.66,3.02-2.05,2.62,.28,5.25,.56,9.32,1-2.9-2.4-4.55-3.77-6.16-5.09-.75,.82-1.43,1.56-2.11,2.3Zm-119.6-9.66c-1.65,.35-3.31,.69-6.34,1.33,4.19,1.85,6.8,3,10.56,4.66-.44-.61,.02,.03,.48,.67l.73-.65c-1.68-2.15-3.37-4.29-5.05-6.44-.13,.14-.26,.29-.39,.43Zm64.44,52.21c-.08-.09-.15-.19-.22-.28,.67-.99,1.35-1.99,2.92-4.31-.53,.27,.34-.17,1.34-.68,1.69,2.57,3.52,.64,4.36-.39,3.49-4.28,6.11-9.14,6.22-16.13-2.39,4.25-4.28,7.62-6.38,11.36,.07,.33,.26,1.18,.46,2.1l-2.8,1.61-.57-2.01c-2.59,1.31-4.51,2.28-6.47,3.27,.09,.88,.17,1.72,.27,2.75l-3.34,.8c-.47-.94-.83-1.67-1.14-2.3-4.04,.6-7.83,1.16-13.35,1.97-2.49-2.25-6.45-5.83-10.4-9.36,2,9.37,8.75,11.61,16.28,13.1,.14-.87,.24-1.54,.56-3.53,3.99,5.27,8.29,4.66,12.69,2.51,0,0-.09-.3-.17-.42-.04-.06-.17-.03-.27-.05Zm-39.38-30.28c.74-.2,1.48-.39,.44-.12,3.39-3.14,5.46-5.06,7.84-7.27-.47-.29-1.37-1.2-1.73-.99-2.25,1.34-4.37,2.94-6.72,4.57,1.03,1.57,1.46,2.22,2.1,3.2l-2.02,.15-2.16-.88c-1.43,1.28-2.91,2.59-4.5,4.01l-2.88-4.21c-1.64,.9-3.25,1.79-4.85,2.67l-3.61-4.54-5.48,3.17c-1.51-2.3-2.9-4.42-4.25-6.48l-3.55,.59c-1.28-2.42-2.46-4.64-4.88-9.2,1.31,6.63,2.09,10.57,2.93,14.82,4.52-1.99,5.49,2.09,7.12,3.9l4.78-1.71c1.41,1.98,2.48,3.48,3.58,5.03,1.85-.82,3.53-1.56,5.91-2.61,.74,1.28,1.63,2.83,2.59,4.47,2.05-1.93,3.57-3.37,5.16-4.87l3.19,2.38,.98-6.08ZM82.94,213.15c.01,.14,.02,.27,0,.11,.12,.15,.03,.04-.06-.07-1.04-3.83-2.98-7.68,.75-11.88,.47,2.71,.87,5.07,1.38,8.03l2.2-4.92,4.66,5.53c1.38-.77,2.58-1.44,2.86-1.59-1.43-34.83-2.83-68.94-4.22-102.86,2.59-1.18,4.23-1.93,6.63-3.03-1.24,2.04-1.99,3.26-2.67,4.36l1.46,4.95c1.39-1.15,2.58-2.14,5.82-4.82-2.57,4.34-3.7,6.27-5.15,8.72l1.02,4.17c1.58-2.58,2.89-4.72,4.39-7.17,3.3,23.04,6.54,45.59,9.83,68.56,1.09-1.15,1.75-1.85,2.28-2.41-.31-2.44-.6-4.7-1.15-9.05l2.63,5.93,1-2.84,2.76,3.68c3.5-4.55-.55-9.36,.68-13.5,10.16,4.01,20.24,7.99,33.22,13.11-4.28-3.74-6.15-5.38-8.56-7.49h4.4v-13.57c-8.28-5.08-15.82-9.7-22.73-13.94,3.28-8.04,7.26-15.17,9.11-22.93,3.38-14.22,5.78-29.16-3.9-41.71-6.39-8.3-14.58-5.45-22.45-1.12l-.75-7.5-4.66,1.45,.55-6.1c-20.7,10.3-39.58,23.21-58.26,37.11,3.81,5.51,.99,11.67,2.34,17.45,1.09,.71,2.32,1.51,3.83,2.49-3.94,4.06-3,9.02-2.97,14.27,5.54-4.38,10.77-8.51,15.83-12.52,4.29,31.07,8.53,61.75,12.86,93.13,1.46-1.48,2.19-2.23,2.95-2.96,.69,.31,1.39,.62,2.08,.93ZM219.31,120.94c-.09-7.11,.58-14.13,8.25-15.99,3.78-.92,5.25,3.05,4.98,6.41-.67,8.35-2.92,15.38-12.87,12.55-.65,2.08-1.26,4.03-1.81,5.78,5.01,4.3,6.52,3.28,19.82-12.61,.29,3.21,.58,6.41,.92,10.16l1.99-2.42,2.31,.77c.13-1.54,.23-2.81,.36-4.3,4.2,1.61,8.25,3.15,12.34,4.71,.67-2.22,1.26-4.2,1.86-6.2-3.75-2.17-7.1-4.1-10.44-6.03,4.61-6.67,11.67-13.43,5.53-21.23-5.91-7.51-12.75-.72-18.86,3.07-6.22-3.02-10.72,.34-14.38,5.65-5.34,7.73-7.36,16.21-3.87,26.09,1.42-2.35,2.57-4.26,3.89-6.44Zm88.26-63.56c.78,1.09,1.55,2.15,2.3,3.19,5.65-3.89,8.48-12.02,6.09-17.72-4.01,9.81-12.19,11.96-20.38,13.94-.33,1.08-.6,2.01-.92,3.08h-5.65c-.48-.73-1-1.53-1.19-1.82-4.49-1.43-8.48-2.69-12.95-4.11,7.45,9.87,16.21,11.61,26.42,7.71,0-1.39,0-2.35,0-2.33,2.27-.7,4.18-1.28,6.28-1.93Zm-56.18,77.19c5.45,2.83,5,14.2,14.06,10.29-2.05-5.02-4.18-10.2-6.35-15.51-2.47,1.67-4.84,3.27-7.71,5.22Zm-52.22-70.73c1.56,0,3.42,.61,4.34-.16,1.07-.89,1.32-3,1.99-4.73-.14-.09,.27,.18,.69,.44,.6-3.46-1.11-4.5-2.94-4.86-2.19-.43-4.47-.21-5.55,2.6-1.12,2.91-1.36,6.02,.85,8.19,1.12,1.1,3.25,.93,2.98,.86,.1-.03-1.6-.28-2.35-2.35Zm56.51-20.73c-5.31-1.6-10.72-3.24-16.33-4.93l-3.27-7.98c-.76,4.82,.81,7.98,1.98,8.96,3.68,1.59,5.32,2.3,6.94,3v4.53c6.17-2.71,13.71,.97,19-8.13l-8.32,4.56Zm-33.41,16.79l.78-4.86c1.52,2.74,1.01,4.78,2.7,3.36-1.86,2.54-.15,1.26,0-.22,.31-3.08-.6-6.24-3.65-7.27-1.44-.49-3.22,.25-4.85,.43l.16,.95,4.32-.35c-3.21,1.57-5.55,1.69-4.68,4.42,.73,2.3,2.06,4.14,5.2,3.53Zm22.93,107.43c-1.23,.69-2.12,1.19-3.3,1.85,.9,.95,1.66,1.74,2.56,2.68,3.79-2.1,7.46-3.91,8.37-9.05-1.9-1.06-3.42-1.91-4.93-2.75-2.79,1.57-4.07,3.78-2.7,7.27Zm-76.02-88.91c2.73-2.74,5.21-5.23,8.07-8.09-2.34-.31-4.23-.57-6.33-.85l-4.45,6.16,2.7,2.78Zm139.35-44.72c.47,1.12,.8,1.91,1.16,2.77l4.48-1.2c-3.2-2.34-5.5-4.03-7.82-5.72-1.85,3.38-3.47,6.33-5.61,10.24,1.86-.87,2.75-1.29,3.56-1.67-.57-3.92,1.91-3.79,4.23-4.42Zm-11.22,16.54c-2.41-2.23-4.25-3.94-6.51-6.03-.99,2.27-1.84,4.24-2.91,6.69l9.42-.66Zm-84.57,14.27c-.67,1.64-1.21,3-1.91,4.73,2.08-.21,3.8-.39,9.16-.95-5.48,1.45-7.38,1.96-9.28,2.46l.12,.55c3.08-.48,6.17-.95,10.17-1.57l-8.26-5.22Zm-37.66-24.41c4.01,.55,7.13,.99,11.02,1.53-2.07-2.17-3.65-3.81-5.23-5.47-1.77,1.2-3.44,2.34-5.79,3.94ZM306.4,13.55c10.09-1.21,16.29-2.71,21.35,2.79-4.93-6.02-10.96-5.83-21.35-2.79Zm-34.62,25.85c1.8-6.79,5.32-12.14,10.78-15.88-6.61,2.78-9.78,8.42-10.78,15.88Zm-9.27-7.27l.66-1.78c-1.79-.67-3.75-2.16-5.32-1.76-1.49,.38-2.58,2.73-3.84,4.22l.9,.98c1.52-1.21,3.03-2.42,4.53-3.62l3.07,1.96Zm-24.12-8.01v1.8l5.44,.64c.47,1.22,.96,2.47,1.44,3.71,.44-2.55-.08-5.05-1.45-5.96-1.36-.9-3.59-.2-5.43-.2Zm57.85,41.19c-5.31-1.05-10.26-2.02-15.21-3,4.58,3,9.56,3.76,15.21,3Zm-50.74,66.67l4.16,1.46,1.44-4.08c-1.95,.91-3.46,1.62-5.6,2.62Zm-64.6-56.3l.79-.19-1.27-6.97-.99,.24c.49,2.31,.98,4.61,1.47,6.92Zm8.39-43.95l.6-.43-1.2-2.06-.55,.4,1.15,2.09Z" style="fill: #050d12;"/>
    <path d="M250.29,141.93v13.07c.49-1.33,.05-.13-.44,1.19l-2.07,.11c-2.32,2.14-4.41,4.07-6.96,6.43l-1.54,3.43c-1.62-2.68-2.77-4.58-5.47-9.04,2.13,4.79,3.04,6.86,4.46,10.06l-2.48-2.04h-11.55c4.67,6.2,10.41,4.46,16.2,4.57l2.95,2.48c-3.63,2.18-7.03,2.24-11.78-.5,1.91,1.71,2.57,2.3,3.35,3-4.95,2.14-9.1-1.29-14.04-1.93-10.31-9.18-13.2-20.17-6.96-27.88,.88,1.44,1.75,2.89,2.74,4.56-.15,1.17-.34,2.66-1.23,9.61,2.01-10.78,5.96-9.15,9.44-9.7,.11,1.56,.21,2.94,.52,7.12v-7.29c1.87-.93,3.58-1.78,5.58-2.78l1.49,1.55,.15-2.39c1.85-1.3,3.69-2.6,5.78-4.07,.99,.54,2.1,1.15,3.05,1.66,.28,2.46,.53,4.63,.81,7.09,1.76-3.31,3.33-6.26,5.1-9.58-1.75-.24-3.79-.52-6.08-.83l.12,2.35c-.25-.02-.52,.02-.53-.04-.35-1.29-1.24-2.91-.84-3.8,.47-1.04,.45-4.14,3.35-2.82-1.22-.82-2.45-1.64-6.05-4.05,13.65,2.29,20.23,7.98,20.17,20.7-.18,1.08-.35,2.17-.53,3.25-2.25-4.48-4.51-8.96-6.76-13.44,.03-.23,.05-.46,.02-.14-.06-.33-.02-.12,.02,.1Zm-14.78,12.84l-5.22-3.05-3.17-.34c-.49,2.43-.95,4.71-1.41,7.01,3.37-1.24,6.46-2.39,9.81-3.62Zm-15.09,15.45l-.1-.27-.08,.26h.18Zm11.18,1.58l.22-.09-.23-.1v.19Z" style="fill: #e08220;"/>
    <path d="M242.6,75.98c-3.12,1.4-3.42,6.75-7.49,6.41-1.52,3.75-2.13,7.91-8.12,9.95,5.42-3.01,6.07-6.94,6.69-9.97,9.83-7.88,9.94-17.91,6.47-28.45-4.7-14.29-13.96-20.34-24.17-16.06,.53-.87,.85-1.39,2.02-3.3-4.72,3.2-8.12,3.21-10.73-1,2.07-1.21,3.94-.78,4.63,.04h15.65c.23-.48,.5-1.04,.77-1.6,6.44,8.29,10.31,19.76,21.78,21.82-.12,.26-.23,.52-.35,.78l-7.93-1.74c.34,2.01,.73,4.25,1.11,6.49,.11,4.11,.22,8.22,.33,12.32l-.54,3.82c.03,.18-.02,.35-.13,.48Z" style="fill: #1b789d;"/>
    <path d="M185.92,18.7c-2.72-.48-5.44-.96-11.72-2.07,6.59,5.34,10.5,8.52,14.41,11.69-4.01-1.45-6.34-6.71-9.86-5.5h-9.73c.88,2.82,1.6,5.14,2.33,7.47-5.24-13.54-13.04-16.47-24.01-7.88l-.43-.67c4.37-4.96,10.33-5.42,15.84-6.74,2.05,1.94,4.13,3.91,5.99,5.67,2.42-.15,4.73-.3,7.52-.48-4.73-5.91-1.57-10.21,2.27-14.35-.15,1.12,.03,2.6-.54,3.27-.76,.89-2.11,1.15-3.32,1.74,2.23,2.53,3.18,3.62,1.66,1.89,5.19,3.23,7.38,4.6,9.57,5.96Z" style="fill: #1b789d;"/>
    <path d="M331.12,61.25l3.29-.24c6.9-9.28,10.17-20.53,6.14-32.33-4.71-13.8-13.08-23.33-28.36-19.42,1.69-.73,3.37-1.46,5.06-2.19,4-1.77,7.61,.63,12.1,2.29,5.88,6.55,14.35,13.09,14.84,24.63,.45,10.51-2.28,20.49-9.34,28.28-1.48,1.63-2.79,.7-3.74-1.01Z" style="fill: #1b789d;"/>
    <path d="M287.48,2.78c2.76,5.4,7.12,10.58,.86,17.2h8.47c1.61-1.34,3.69-3.07,5.84-4.86l-2.88-2.81c7.62,2.92,13.15,5.04,18.68,7.16-7.79-3.45-14.89-4.09-20.81,2.93h-13.19c1.01-1.63,4.22-1.84,3.24-5.05-3.41,.34-6.57,.65-9.74,.96,3.37-3.75,9.67-1.61,12.03-7.99-.16-.43-.5-1.33-.85-2.24l-3.26-1.47c.57-1.35,1.09-2.6,1.61-3.84Z" style="fill: #1b789d;"/>
    <path d="M124.26,40.4c0-1.27-.02-2.54-.03-3.81,4.09-14.59,7.66-29.79,25.86-28.52,1.06,.07,2.09,.54,3.13,.83,.27,.34,.54,.69,1.79,2.27-11.85-2.88-20.59-.4-24.66,12.6-3.29,10.51-6.65,20.86-.98,31.65-4.87-3.67-4.08-9.73-5.11-15.02Z" style="fill: #1b789d;"/>
    <path d="M200.08,42.79c.63-1.1,1.26-2.2,2.16-3.76-3.62,.62-6.55,1.13-13.69,2.36,5.99-2.61,7.97-3.48,9.94-4.34,1.05-.5,2.1-1.01,3.2-1.54-2.52-6.51-2.02-11.24,5.13-12.38-8.59,4.5-.71,12.97-3.58,18.82l7.25,2.19-.94,2.24-.2,.2c-5.72-2.66-10.35-.47-14.59,3.9,1.78-2.58,3.57-5.17,5.35-7.75l-.05,.05Z" style="fill: #1b789d;"/>
    <path d="M246.08,13.72l5.52-2.07c-.41,.93-.74,1.67-1.06,2.44,1.13,.82,2.26,1.61,3.47,2.46l2.88-.9c-2.03-4.22-2.76-8.1,1.81-11.07-.34-.6-.74-1.33-1.15-2.06,.93,.44,1.85,.88,2.61,1.24-1.1,2.45-2.03,4.51-2.94,6.54,.57,1.05,1.07,1.98,1.58,2.91,.5,1.53,1,3.06,1.54,4.72-2.32,.19-4.87,.39-7.69,.62-1.33-2.12-3.4-2.78-6.2-1.99l-.65-2.45c.1-.13,.2-.26,.29-.38Z" style="fill: #1b789d;"/>
    <path d="M311.96,7.61c-4.22,1.18-8.21,5.67-12.83,1.11,4.28-.37,8.55-.74,12.83-1.11Z" style="fill: #1b789d;"/>
    <path d="M195.76,29.18c-2.96-3.46-5.92-6.93-8.88-10.39,5.28,1.01,8,4.72,8.88,10.39Z" style="fill: #1b789d;"/>
    <path d="M207.36,27.49l4.11-1.98c-.98-1.16-1.8-2.13-2.61-3.09,2.2-.59,3.71,.33,4.84,3.11l-2.79,2.68-3.55-.72Z" style="fill: #1b789d;"/>
    <path d="M254.43,163.18l-2.1-2.06,3.37-9.24c-.23,4.59-.36,7.14-.48,9.69-.26,.54-.52,1.07-.79,1.61Z" style="fill: #e08220;"/>
    <path d="M274.86,21.31c-1.84,1.85-3.69,3.69-5.98,5.99,.38-1.85,.63-3.05,.88-4.24,1.63-.83,2.59-4.1,5.1-1.75Z" style="fill: #1b789d;"/>
    <path d="M244.13,9.93c-2.42,.69-4.84,1.39-7.26,2.09,2.05-2.26,4.42-3.21,7.26-2.09Z" style="fill: #1b789d;"/>
    <path d="M238.02,6.16c2.37-1.68,4.68-3.68,7.86-2.25l-7.4,2.83-.46-.58Z" style="fill: #9188a4;"/>
    <path d="M231.59,18.67c-.73,2.09-1.46,4.17-2.19,6.26,.73-2.09,1.46-4.17,2.19-6.26Z" style="fill: #1b789d;"/>
    <path d="M292.44,1.54h-3.89c1.29-1.79,2.59-1.76,3.89,0Z" style="fill: #1b789d;"/>
    <path d="M329.45,64.28c.57-1.02,1.14-2.04,1.71-3.05-.57,1.02-1.14,2.04-1.71,3.05Z" style="fill: #1b789d;"/>
    <path d="M326.97,68.36c-.26-.31-.51-.62-.77-.93l-.17-.24c.59-.36,1.18-.72,1.77-1.08l-.83,2.25Z" style="fill: #1b789d;"/>
    <path d="M272.67,19.14c-.62-.62-1.25-1.23,1,.99-1.21-3.38-.87-2.41-.52-1.44l-.48,.45Z" style="fill: #050d12;"/>
    <path d="M228.85,27.37c-.19,1.24-.38,2.48-.56,3.71,.19-1.24,.38-2.48,.56-3.71Z" style="fill: #1b789d;"/>
    <path d="M269.77,23.08c-.19-.87-.39-1.74-.58-2.61,.19,.87,.39,1.74,.58,2.61Z" style="fill: #1b789d;"/>
    <path d="M196.77,31.38c-.34-.75-.68-1.49-1.02-2.24,.34,.75,.68,1.49,1.02,2.24Z" style="fill: #1b789d;"/>
    <path d="M238.48,6.74l-1.94,1.27-.36-.66c.62-.39,1.23-.79,1.85-1.18,.15,.19,.31,.38,.46,.57Z" style="fill: #9188a4;"/>
    <path d="M229.41,24.91c-.19,.83-.38,1.66-.56,2.48,.19-.83,.38-1.66,.56-2.48Z" style="fill: #1b789d;"/>
    <path d="M207.27,33.56c-.27-.25-.55-.49-.82-.74,.27,.25,.55,.49,.82,.74Z" style="fill: #1b789d;"/>
    <path d="M178.55,5.85l-.56-1.25,.56,1.25Z" style="fill: #1b789d;"/>
    <path d="M288.57,1.54l-.55,.64,.55-.64Z" style="fill: #1b789d;"/>
    <path d="M328.9,64.89l.56-.62-.56,.62Z" style="fill: #1b789d;"/>
    <path d="M327.79,66.12l.56-.62-.56,.62Z" style="fill: #1b789d;"/>
    <path d="M328.34,65.5l.56-.62-.56,.62Z" style="fill: #1b789d;"/>
    <path d="M228.3,31.06c0,.31,0,.62,.01,.93-.14-.12-.27-.25-.52-.48l.5-.45Z" style="fill: #1b789d;"/>
    <path d="M170.34,176.78l.73,.58c-.61-.08-.84-.12-1.08-.15,.11-.15,.23-.3,.35-.44Z" style="fill: #050d12;"/>
    <path d="M178,4.62c-.22-.28-.44-.55-.67-.83,.22,.28,.44,.55,.67,.83Z" style="fill: #1b789d;"/>
    <path d="M416.41,187.8c.12,.19,.24,.38,.69,1.12-.68-.48-.85-.61-1.03-.74,.12-.13,.23-.26,.35-.39Z" style="fill: #050d12;"/>
    <path d="M288.03,2.17l-.56,.62,.56-.62Z" style="fill: #1b789d;"/>
    <path d="M293.17,2.27l-.74-.74,.74,.74Z" style="fill: #1b789d;"/>
    <path d="M319.41,72.47c9.45,1.51,12.53,8.29,12.01,17.6,7.84-2.05,15.73-4.12,23.85-6.24-.14,2.62,.56,5.13-2.49,6.26,.95,1,1.71,1.8,2.52,2.65-.34,.97-.71,2.01-1.03,2.93-5.13,1.74-10.13,3.44-15.29,5.19-.27,2.16-.51,4.14-.79,6.41,2.98-1.01,5.67-1.92,9.35-3.17-.06,.2,.28-.88,.86-2.71,2.93-.9,6.29-1.94,9.57-2.95-.13,2.58-.24,4.61-.35,6.64l.96,.2c.52-2.51,1.03-5.02,1.73-8.42,1.28-.83,3.18-2.06,5.6-3.63-.3,2.11-.47,3.38-.68,4.81h4.14c1.7-1.61,3.56-3.37,5.78-5.47-3.47-1.33-6.72-2.58-10.12-3.89-.28-1.75-.57-3.55-.84-5.2,.73-1.17,1.34-2.17,2.08-3.36-.74-.6-1.37-1.1-2-1.64,0-1.13,0-2.24,0-3.61,2.72,1.37,5.29,2.66,9.77,4.91-3.13-3.96-4.82-6.08-6.54-8.27h-3.22c.45-4.19,.88-8.22,1.34-12.47,1.36,.38,2.73,.77,4.31,1.21v-5.73c20.12,9.99,38.72,22.72,57.25,36.43-3.34,5.45-.86,11.61-2.04,17.42-1.18,.76-2.35,1.52-3.81,2.46,3.55,4.06,3.1,8.94,2.97,14.29-5.51-4.39-10.69-8.51-15.79-12.57-4.21,30.61-8.41,61.05-12.69,92.15-1.27-1.24-1.98-1.93-2.87-2.8l-2.51,1.47c1.66-4.2,3.21-8.03-.37-12.36-.42,2.89-.76,5.21-1.19,8.15-.89-1.87-1.54-3.26-2.36-5-1.54,1.91-2.93,3.62-4.5,5.57-1.21-.67-2.41-1.34-3.73-2.08,1.61-14.62,3.19-29.19-.2-43.74,.11,1.49,.22,2.99,.3,3.98-.73,1.81-1.33,3.28-2.11,5.22-1,.49-2.5,1.23-4.28,2.11-1.47-7-2.91-13.85-4.45-21.17-3.84,2.12-7.42,4.1-11.17,6.16-.73,5.98-1.44,11.84-2.16,17.75-.94,.7-1.84,1.39-2.8,2.1-1.96-3.67-4.19,4.46-6.18-.58l-1.34,3.18v-34.86c-5.44,3.15-11.06,6.41-16.17,9.37-.29-7.38-.59-14.99-.91-23.06-1.13,.35-1.84,.57-2.79,.87,.41-1.11,.77-2.11,1.06-2.9-.65-1.73-1.25-3.33-1.85-4.93l2.36-2.33v-7.29c-5.17,4.75-9.96,9.16-14.91,13.71,4.47,5.49,9.13,11.22,14.56,17.9-.41,1.37-1.36,4.57-2.38,8.03-.82-.3-1.88-.69-3.86-1.41,1.62,2.29,2.68,3.79,5.43,7.68-9.48-7.43-16.76-13.13-24.13-18.91-.81,2.91-1.64,5.9-2.89,10.4-1.16-2.69-1.51-3.51-1.95-4.53-.5,.3-1,.59-1.71,1.01-.13-.89-.24-1.7-.58-4.07-.63,2.9-.94,4.33-1.3,6.02l-2.34,.75c2.58-16.46,5.11-32.56,7.69-49.01l-5.04,3.21c-.35-2.1-.47-3.77,2.51-4.3-4.37-1.44-7.94-2.61-11.57-3.81,1.76,21.89,3.51,43.56,5.26,65.27h-4.35c.11-.94,.29-2.39,.49-4.01-.68-.96-1.41-1.98-2.74-3.86v6c-1.07-.96-1.93-1.72-2.82-2.51-.89,1.61-1.7,3.08-2.65,4.8-1.15-.25-2.28-.49-2.61-.56-4.74-23.94-9.37-47.35-14.02-70.82-5.91-.38-10.94-.7-16.14-1.03l-1.3-2.59c.14-2.02,.24-3.48,.34-4.95,.11-.14,.16-.3,.13-.48,1.59-.17,3.17-.33,4.65-.49-.56-.81-.99-1.42-1.41-2.02l-.72-2.08,2.98-.55c-.73-3.33-3.33-6.42-.62-9.71,4.04,.39,8.07,.78,13.25,1.28-.4,.17,.4-.17,1.11-.46l1.78,2.31h-10.04c5.35,2.25,9.31,3.91,15,6.31-5.74-.34-9.67-.57-13.59-.79l-.54,1.89c5.42,2.22,10.83,4.45,16.75,6.88l-6.79,1.28c.41,1.39,.68,2.32,1.02,3.48,7.06,1.24,14.05,2.47,21.79,3.83-1.85-2.64-3.17-4.52-4.65-6.62h10.01c.56-1.31,1.03-2.42,1.5-3.53,.36,.77,.72,1.55,1.02,2.21,2.29-1.12,4.49-2.2,6.69-3.27,4.09,.54,8.17,1.08,12.59,1.66-1.94,1.31-3.62,2.44-5.62,3.79l3.26,1.69c-1.69,.9-2.71,1.44-3.73,1.99,5.8-1.63,11.14-3.59,15.52,3.23l3.76-2c.18-6.93-6.58-8.17-8.27-13.31Zm79.15,58.24l.04,.04c1.94-4.71,3.87-9.43,5.66-13.8-2.65-7.75-8.71-10.61-14.27-14.95v10.91c1.61,1.38,3.19,2.74,4.73,4.06-2.1,12.96-4.15,25.64-6.57,40.55,2.29-5.01,3.65-7.98,5.78-12.66-.97,7.41-1.67,12.84-2.41,18.47,1.11,.53,2.06,.98,3.6,1.72,2.77-12.17,5.43-23.9,8.25-36.29-2.17,.88-3.5,1.41-4.83,1.95Zm7.22-28.9c.18,.18,.37,.35,.05,.05,.42,.07,.17,.03-.08-.01-1.71-1.76-3.41-3.53-5.95-6.15,5.34,2.67,9.72,4.86,14.41,7.2,1.24-3.18,2.36-6.02,3.51-8.96-2.01-1.51-3.7-2.79-6.29-4.74,3.61,.85,6.16,1.46,10.59,2.5-10.9-7.74-20.22-14.36-30.07-21.35,.29,5.28,.48,8.71,.7,12.55h-8.32c1.07,1.3,1.79,2.16,2.69,3.25-2.28,.96-4.29,1.8-6.51,2.73,8.64,4.42,16.95,8.67,25.27,12.92Zm-122.75,32.69c-1.83-13.8-3.6-27.16-5.36-40.37,1.11-.9,1.81-1.47,2.99-2.43-2.78-.78-5.03-1.42-7.69-2.17v17.31c-2.27-3.74-4.09-6.75-7.1-11.71,3.16,15.34,5.83,28.29,8.66,42.06,1.22-2.37,2.07-4,3.05-5.92,1.73,1.03,3.37,2.01,5.44,3.23Zm72.25-30.29c-4.94,11.11-3.01,22.06-5,33.23,11-7.57,8.03-20.37,13.25-32.75-3.23,4.36-4.69,6.32-6.47,8.72-.61-3.14-1.08-5.57-1.78-9.2Zm22.75,30.6c-1.2-4.2-3.02-5.92-5.73-5.21-3.66,.96-7.42,2.18-7.6,7.85-5.69-2.7-10.2,1.19-15.61,2.23,1.34,2.56,2.41,4.61,3.58,6.86,8.68-4.01,16.99-7.86,25.36-11.72Zm4.34-9.56v-29.48c-1.97-.85-3.8-1.65-6.14-2.67,.79,11.42,1.54,22.26,2.31,33.5,1.5-.53,2.51-.89,3.83-1.35Zm-76.16-16.76c6.21-4.5,13.17-7.11,12.09-16.3-.42-3.55-3.85-3.3-6.76-3.03-1.7,6.17-3.38,12.25-5.33,19.34Zm31.27,23.97c2.65-1.35,5.27-2.68,7.84-3.99,.32-4.58,.63-8.94,.98-13.82-3.1,1.21-5.83,2.27-8.82,3.44v14.36Zm-38.61-14.45c7.59-6.45,5.24-15.81,8.61-24.7-3.17,2.17-4.99,3.42-6.61,4.53-.67,6.78-1.3,13.1-2,20.17Zm70.48-10.37c.97,6.65,1.92,13.14,2.94,20.14,1.1-.94,1.85-1.59,2.26-1.94v-24.63c-.75,3.36-.98,4.39-1.23,5.5-1.31,.31-2.54,.6-3.97,.94Zm-4.15,23.62c-.87-5.78-1.71-11.27-2.81-18.55-1.52,8.49-2.73,15.24-4.08,22.8,2.79-1.72,4.7-2.9,6.88-4.25Zm-58.42-18.53l.75,4.38c1.58-.77,2.97-1.45,5.46-2.66,1.72-2.14,4.27-5.32,8.54-10.64-6.4,3.87-10.54,6.37-14.76,8.92Zm27.64-14.95c5.28-2.75,10.02-5.22,15.82-8.24-6.38-1.87-10.1,1.57-13.87,3.12-.62,1.63-1.11,2.93-1.94,5.13Zm9.13,11.71c-5.99-2.79-9.39,1.88-14.31,4.56,5.62,.13,10.07-.52,14.31-4.56Zm37.93-34.81c-1.05,.42-1.94,.78-3.84,1.55,2.77,1.7,4.83,2.96,8.61,5.28-2.39-3.43-3.52-5.04-4.77-6.84Zm-5.71,68.29c.55,2.32,1.02,4.33,1.85,7.86l1.81-9.53c-1.67,.76-2.6,1.19-3.65,1.67Zm12.49,29.09c-.21,4.25-.36,7.33-.51,10.41,1.49-2.99,3.81-5.89,.51-10.41Zm3.84,18.97c1.89-5.12,3.41-7.29,.93-10.41-.26,2.89-.46,5.18-.93,10.41Zm-115.37-55.44c.56,2.85,.94,4.78,1.57,7.99,.87-3.57,1.65-5.78-1.57-7.99Zm30.97-50.17l-.09,.12,.14,.03-.05-.15Z" style="fill: #9188a4;"/>
    <path d="M82.94,213.15c-.69-.31-1.39-.62-2.09-.94-.74,.74-1.48,1.48-2.94,2.97-4.33-31.39-8.57-62.06-12.86-93.13-5.06,4-10.29,8.14-15.83,12.52-.03-5.25-.97-10.21,2.97-14.27-1.51-.98-2.73-1.78-3.83-2.49-1.35-5.79,1.47-11.94-2.34-17.45,18.68-13.9,37.56-26.81,58.26-37.11l-.55,6.1,4.66-1.45,.75,7.5c7.87-4.33,16.05-7.17,22.45,1.12,9.68,12.56,7.28,27.5,3.9,41.71-1.84,7.76-5.83,14.89-9.11,22.93,6.91,4.24,14.45,8.86,22.73,13.94v13.57h-4.4c2.41,2.11,4.28,3.75,8.56,7.49-12.98-5.12-23.07-9.1-33.22-13.11-1.23,4.14,2.82,8.94-.68,13.5l-2.76-3.68-1,2.84-2.63-5.93c.55,4.35,.84,6.6,1.15,9.05-.53,.56-1.19,1.26-2.28,2.41-3.3-22.98-6.53-45.52-9.83-68.56-1.5,2.45-2.81,4.59-4.39,7.17l-1.02-4.17c1.45-2.45,2.58-4.37,5.15-8.72-3.24,2.68-4.43,3.67-5.82,4.82l-1.46-4.95c.67-1.1,1.42-2.33,2.67-4.36-2.4,1.1-4.05,1.85-6.63,3.03,1.39,33.92,2.79,68.02,4.22,102.86-.28,.16-1.48,.82-2.86,1.59l-4.66-5.53-2.2,4.92c-.51-2.96-.91-5.31-1.38-8.03-3.73,4.19-1.8,8.05-.75,11.88l.05-.04Zm-8.9-77.47c-.04-.25-.09-.5-.02-.09-.23-.3-.09-.12,.04,.06,1.81,14.96,3.62,29.92,5.56,45.94,1.81-3.89,3.1-6.65,4.6-9.88,1.73,4.22,3.23,7.85,5.17,12.57-1.63-23.14-3.16-45.01-4.72-67.21-3.84,.63-7.16,1.17-10.83,1.77,.78,6.4,1.52,12.53,2.36,19.42-1.06-1.27-1.6-1.93-2.15-2.58Zm-8.42-42.33c-4.43,3.91-7.7,6.8-10.8,9.53-.2,2.7-.37,5.04-.54,7.37,.89,1.12,1.72,2.18,2.54,3.21,3.36-.78,6.54-1.52,10.4-2.42-1.69,2.55-2.95,4.46-4.21,6.37l1.25,2.23c6.91-4.53,13.82-9.05,20.73-13.58-.91-5.25-1.76-10.11-2.77-15.93,3.82,3.72,6.97,6.79,10.29,10.02,4.9-2.33,9.78-4.64,14.79-7.02l-.18-3.23c-3.48-.41-6.72-.8-10.39-1.23,1.19-1.26,2.06-2.18,3.37-3.56h-6.39c2.44-2.2,4.36-3.93,6.48-5.84-2.42-1.99-4.47-3.68-6.75-5.56-11.68,7.18-23.29,14.33-36.4,22.4,3.48-1.13,5.34-1.73,8.6-2.78Zm54.78,38.38l4.35,1.03c3.01-16.37,12.79-30.64,3.13-48.76-4.88-9.16-7.6-4.35-13.7-2.88l5.86,1.47-3.65,2.89c22.86,13.34,4.27,30.35,4.01,46.26Zm-3.61-5.14c5.28-9.88,12.21-17.71,6.78-28.64-1.8-3.63-5.32-1.63-8.12,.07,.42,9,.84,17.86,1.34,28.57Zm17.03,30.45c3.76-.86,6.48-1.49,10.25-2.36-8.87-4.28-16.75-8.08-25.1-12.11,.36,3.63,.66,6.6,.98,9.79,4.62,.34,8.9,.65,15.08,1.11-5.49,1.28-9.05,2.11-17.69,4.13,11.13,1.28,17.26,1.98,25.98,2.98-4.5-1.67-6.52-2.43-9.51-3.54Zm-18.41-8.39c-1.11-15.33-2.21-30.66-3.36-46.63-1.8,1.4-2.98,2.34-4.19,3.23-.38,.28-.84,.42-3.41,1.66,3.82-.5,5-.66,4.93-.65-4.14,14.78,3.35,28.38,6.02,42.39Zm-28.91,48.91c-.55-8.15-.75-11.26-1.02-15.21-3.35,4.23-.96,7.17,1.02,15.21Zm-4.7,4.9c-.58-6.54-.78-8.87-1.05-11.9-2.63,3.34-.82,5.52,1.05,11.9Z" style="fill: #9188a4;"/>
    <path d="M214.84,93.82c-4.46,9.1-8.93,18.19-13.76,28.04,3.95,3.61,8.6,7.86,13.37,12.22,1.09,5.02-1,9.24-3.65,13.69-5.68-3.57-11.33-7.13-17.96-11.3v14.03c-1.91-2.71-2.73-3.88-3.77-5.35-.47,1.91-.85,3.47-1.21,4.97-1.05,.1-1.92,.18-2.96,.28-.19-2.58-.4-5.25-.63-8.32-10.42,3.17-20.36,5.29-28.06-8.42,.27,5.68,.45,9.53,.65,13.59-.83,.42-1.73,.87-2.88,1.45-1.47-1.94-2.87-3.78-4.47-5.89-.08,1.29-.18,2.79-.31,4.86l-1.31,2.17h-4.54c-1.63-23.14-3.29-46.74-4.96-70.45,2.18-.98,3.75-1.68,5.45-2.44,.64,1.7,1.18,3.15,2,5.37,.58-2.94,1-5.03,1.64-8.26l2.1,3.68c2.2-1.29,4.23-2.48,6.26-3.66,.59-.15,1.18-.3,1.77-.45-.07,1.21-.15,2.43-.23,3.76l2.37,.78c-.22,3.22-.44,6.49-.72,10.62,5.43-6.91,11.7-10.33,19.91-11.14-.7,4.02-1.33,7.65-1.98,11.36l2.34-.42c-.5,1.4-.89,2.47-1.3,3.55,.43,1.22,.88,2.44,1.35,3.69-10.72,6.61-18.5,15.58-13.52,29.95,2.73,7.87,9.78,6.3,15.95,3.02,.3,1.5,.58,2.89,.13,.67,0-12.82,0-29.18,0-45.55,2.12,1.44,1.96,8.04,6.93,3.13l.66,5.51c.82,.64,1.63,1.26,2.63,2.03-2.03,1.47-3.91,2.83-5.78,4.2,.6,11.01,1.19,21.76,1.78,32.5,2.32-10.09,2.89-20.32,3.72-30.52,.19-2.3-.6-5.52,2.68-6.37v10.81c1.57-3.44,2.98-6.53,4.39-9.63,1.04,0,2.08,0,3.57,0-2.45,6.81-4.73,13.12-8.58,23.81,8.96-10.96,14.94-18.27,20.92-25.58Zm-47.37-8.01c.1-.07,.2-.15,.13-.1,.06-.07-.02,.03-.1,.13l-.61,.55c-5.52,3.44-4.66,9.05-4.17,15.26,2.2-1.78,3.99-3.23,5.64-4.56-.17-2.64-.31-4.85-.46-7.22l-2.02,.42c.46-1.42,.83-2.55,1.2-3.69l.4-.79Zm32.57,41.92l-1.84-.58-1.3,3.92c3.72,2.2,7.26,4.31,10.84,6.42,1.35-.91,2.58-1.74,4.77-3.2-4.57-2.45-8.47-4.55-12.38-6.64l-.09,.08Zm-56.73-26.39c1.12,12.5,2.2,24.59,3.42,38.27,.7-5.22,1.19-8.89,1.93-14.39,.57,4.53,.9,7.16,1.27,10.18,1.22-.65,1.93-1.02,2.71-1.43,.57-13.41,1.14-26.65,1.83-42.86-1.29,7.2-2.05,11.48-3.45,19.29-.59-5.39-.79-7.18-1-9.06h-6.72Z" style="fill: #9188a4;"/>
    <path d="M219.31,120.94c-1.31,2.18-2.47,4.09-3.89,6.44-3.49-9.89-1.47-18.36,3.87-26.09,3.66-5.31,8.17-8.67,14.38-5.65,6.11-3.79,12.95-10.58,18.86-3.07,6.14,7.8-.91,14.56-5.53,21.23,3.34,1.93,6.69,3.86,10.44,6.03-.6,2-1.2,3.98-1.86,6.2-4.09-1.56-8.14-3.11-12.34-4.71-.12,1.48-.23,2.76-.36,4.3l-2.31-.77-1.99,2.42c-.34-3.74-.63-6.95-.94-10.15-13.28,15.89-14.79,16.9-19.8,12.6,.55-1.76,1.16-3.7,1.81-5.78,9.95,2.83,12.2-4.21,12.87-12.55,.27-3.36-1.2-7.33-4.98-6.41-7.67,1.86-8.34,8.88-8.25,15.99Zm23.87-12.59c2.75-2.77,5.8-4.53,4.81-8.64-.21-.87-2.42-1.13-4.04-1.81-.29,3.96-.5,6.82-.77,10.45Z" style="fill: #9188a4;"/>
    <path d="M294.2,76.48c-.47,1.11-.95,2.23-1.5,3.53h-10.01c1.48,2.11,2.8,3.99,4.65,6.62-7.74-1.36-14.72-2.59-21.79-3.83-.34-1.16-.61-2.09-1.02-3.48l6.79-1.28c-5.92-2.43-11.33-4.65-16.75-6.88l.54-1.89c3.93,.23,7.85,.46,13.59,.79-5.69-2.4-9.65-4.06-15-6.31,4.41,0,7.23,0,10.04,0,1.4,.02,2.81,.05,4.21,.07,1.75,1.05,3.5,2.09,5.25,3.14,.83,.93,1.65,1.87,2.48,2.8-.61,.73-1.21,1.47-1.83,2.22,3.16,.9,6.39,1.81,9.61,2.72,3.61-.99,7.22-1.98,11.05-3.03-.15,.61-.3,1.21-.45,1.82-.02,.64-.05,1.28-.07,1.92,.07,.35,.14,.71,.2,1.06Z" style="fill: #f4f4f5;"/>
    <path d="M124.26,40.4c1.04,5.29,.24,11.34,5.11,15.02,1.24,2.32,3,3.09,5.28,2.07,2.94,5.35,5.66,10.99,12.75,7.75,.65,.85,1.25,1.64,1.85,2.43,.37,.51,.74,1.02,1.11,1.53h0l.51,1.76c-3.05,4.45-7.65,1.76-11.67,3.65,.7-3.44,1.26-6.24,2.64-13.04-2.6,5.86-3.6,8.12-4.74,10.67-3.58-3.82-6.79-8.57-13.05-4.9l1.6-3.81c-3.33,.18-6.46,.34-11.62,.61,4.37-4.3,6.88-6.76,10.28-10.11-4.38,1.51-7.65,2.64-11.75,4.06,4.24-6.42,7.97-12.05,11.7-17.69Z" style="fill: #f4f4f5;"/>
    <path d="M307.57,57.38c-2.1,.65-4.01,1.23-6.28,1.93,0-.02,0,.94,0,2.33-10.22,3.91-18.97,2.17-26.42-7.71,4.47,1.42,8.46,2.69,12.95,4.11,.19,.29,.71,1.09,1.19,1.82h5.65c.32-1.06,.6-1.99,.92-3.08,8.19-1.98,16.37-4.14,20.38-13.94,2.39,5.7-.45,13.83-6.09,17.72-.75-1.04-1.51-2.1-2.3-3.19Z" style="fill: #e08220;"/>
    <path d="M181.29,51.99l-.98,6.08-3.19-2.38c-1.59,1.5-3.11,2.93-5.16,4.87-.95-1.65-1.85-3.2-2.59-4.47-2.38,1.05-4.06,1.79-5.91,2.61-1.11-1.55-2.17-3.05-3.58-5.03l-4.78,1.71c-1.63-1.81-2.61-5.89-7.12-3.9-.84-4.24-1.62-8.19-2.93-14.82,2.42,4.56,3.59,6.78,4.88,9.2l3.55-.59c1.35,2.06,2.75,4.18,4.25,6.48l5.48-3.17,3.61,4.54c1.6-.88,3.21-1.76,4.85-2.67l2.88,4.21c1.59-1.42,3.06-2.73,4.5-4.01,.78,.32,1.47,.6,2.16,.88-.01,.16,.02,.32,.09,.46Z" style="fill: #e08220;"/>
    <path d="M194.55,94.4c-3.28,.85-2.5,4.07-2.68,6.37-.83,10.2-1.4,20.43-3.72,30.52-.59-10.75-1.17-21.49-1.78-32.5,1.88-1.36,3.76-2.72,5.78-4.2-1-.77-1.8-1.39-2.63-2.03l-.66-5.51c-4.97,4.91-4.81-1.69-6.93-3.13,.49-1.03,.97-2.06,1.36-2.89,3.89,3.8,7.48,7.29,11.25,10.98v2.39Z" style="fill: #f4f4f5;"/>
    <path d="M319.41,72.47c1.7,5.14,8.46,6.38,8.27,13.31l-3.76,2c-4.38-6.82-9.72-4.86-15.52-3.23,1.02-.55,2.04-1.09,3.73-1.99l-3.26-1.69c2-1.35,3.68-2.48,5.62-3.79-4.42-.58-8.51-1.12-12.59-1.66,5.84-.98,11.67-1.96,17.5-2.94Z" style="fill: #f4f4f5;"/>
    <path d="M214.84,93.82c-5.98,7.31-11.95,14.62-20.92,25.58,3.85-10.69,6.13-17.01,8.58-23.81-1.48,0-2.53,0-3.57,0,4.91-6.71,11.88-2.66,19.42-5.26l-3.51,3.5Z" style="fill: #f4f4f5;"/>
    <path d="M220.67,82.27c.09,.01,.23-.01,.27,.05,.09,.13,.17,.42,.17,.42-4.41,2.15-8.71,2.76-12.69-2.51-.31,1.99-.42,2.66-.56,3.53-7.53-1.5-14.28-3.74-16.28-13.13,3.96,3.56,7.91,7.13,10.4,9.39,5.52-.81,9.31-1.37,13.35-1.97,.31,.62,.67,1.35,1.14,2.3l3.34-.8c-.1-1.02-.18-1.87-.27-2.75,1.96-.99,3.87-1.95,6.47-3.27l.57,2.01,2.8-1.61c-.2-.92-.39-1.77-.46-2.1,2.1-3.74,3.99-7.1,6.38-11.36-.11,6.99-2.73,11.86-6.22,16.13-.84,1.03-2.67,2.96-4.36,.39-1,.5-1.87,.94-1.34,.68-1.57,2.32-2.24,3.31-2.92,4.31-.46,.15-.92,.31,2.94-.98-3.69,1.7-3.2,1.48-2.72,1.26Z" style="fill: #e08220;"/>
    <path d="M251.39,134.57c2.87-1.94,5.24-3.55,7.71-5.22,2.17,5.31,4.3,10.49,6.35,15.51-9.06,3.91-8.62-7.46-14.06-10.29Z" style="fill: #f4f4f5;"/>
    <path d="M199.18,63.84c.74,2.07,2.45,2.32,2.35,2.35,.27,.07-1.86,.24-2.98-.86-2.21-2.18-1.97-5.28-.85-8.19,1.09-2.81,3.36-3.03,5.55-2.6,1.83,.36,3.55,1.4,2.94,4.86-.41-.27-.83-.53-.69-.44-.66,1.73-.92,3.84-1.99,4.73-.93,.77-2.78,.16-4.34,.16Z" style="fill: #e08220;"/>
    <path d="M255.69,43.1l8.32-4.56c-5.29,9.1-12.84,5.42-19,8.13v-4.53c-1.62-.7-3.26-1.41-6.94-3-1.17-.97-2.75-4.14-1.98-8.96l3.27,7.98c5.61,1.7,11.02,3.33,16.33,4.93Z" style="fill: #e08220;"/>
    <path d="M273.2,66.97c-1.75-1.05-3.5-2.09-5.25-3.14-1.12-2.94-2.23-5.89-3.35-8.83-.23-.92-.45-1.85-.8-3.27-3.56,4.06-7.44,1.23-11.08,1.63-.11-.15-.22-.29-.32-.44,3.43-2.32,8.1,2.71,11.21-2.97,.37-5-.34-10.98,3.41-15.77l-.03-.03c-3.83,12.32-1.37,23.17,6.21,32.82Z" style="fill: #1b789d;"/>
    <path d="M222.28,59.89c-3.15,.61-4.47-1.23-5.2-3.53-.87-2.73,1.47-2.85,4.68-4.42l-4.32,.35-.16-.95c1.63-.18,3.4-.92,4.85-.43,3.04,1.03,3.96,4.18,3.65,7.27-.15,1.48-1.86,2.76,0,.22-1.69,1.42-1.18-.62-2.7-3.36l-.78,4.86Z" style="fill: #e08220;"/>
    <path d="M245.22,167.33c-1.36-3.48-.08-5.7,2.7-7.27,1.51,.84,3.03,1.69,4.93,2.75-.91,5.14-4.58,6.95-8.37,9.05-.9-.94-1.66-1.73-2.56-2.68,1.17-.66,2.07-1.16,3.3-1.85Z" style="fill: #e08220;"/>
    <path d="M169.19,78.42l-2.7-2.78,4.45-6.16c2.1,.28,3.99,.53,6.33,.85-2.86,2.87-5.34,5.35-8.07,8.09Z" style="fill: #f4f4f5;"/>
    <path d="M308.55,33.69c-2.32,.63-4.79,.5-4.23,4.42-.81,.38-1.7,.8-3.56,1.67,2.14-3.91,3.76-6.86,5.61-10.24,2.32,1.7,4.63,3.38,7.82,5.72l-4.48,1.2c-.36-.86-.69-1.65-1.16-2.77Z" style="fill: #e08220;"/>
    <path d="M297.33,50.23l-9.42,.66c1.07-2.45,1.93-4.42,2.91-6.69,2.26,2.09,4.1,3.8,6.51,6.03Z" style="fill: #e08220;"/>
    <path d="M212.76,64.5l8.26,5.22c-4.01,.62-7.09,1.1-10.17,1.57l-.12-.55c1.9-.5,3.81-1.01,9.28-2.46-5.36,.55-7.09,.73-9.16,.95,.7-1.73,1.25-3.08,1.91-4.73Z" style="fill: #e08220;"/>
    <path d="M156.62,29.62c1.68,2.15,3.37,4.29,5.05,6.44l-.73,.65c-.46-.64-.93-1.28-.48-.67-3.76-1.66-6.38-2.81-10.56-4.66,3.03-.63,4.69-.98,6.34-1.33,.2,.2,.39,.39,2.27,2.29l-1.88-2.73Zm.69,1.98c.02-.14,.03-.28-.01,.09-.09-.37-.06-.23,.01-.09Z" style="fill: #e08220;"/>
    <path d="M181.29,51.99c-.07-.14-.1-.29-.09-.46,.58-.04,1.16-.09,2.02-.15-.64-.97-1.07-1.63-2.1-3.2,2.35-1.64,4.47-3.23,6.72-4.57,.36-.21,1.26,.7,1.73,.99-2.38,2.21-4.45,4.13-7.84,7.27,1.04-.28,.3-.08-.44,.12Z" style="fill: #1b789d;"/>
    <path d="M175.09,40.1c2.35-1.6,4.02-2.74,5.79-3.94,1.58,1.65,3.16,3.3,5.23,5.47-3.89-.54-7.01-.97-11.02-1.53Z" style="fill: #e08220;"/>
    <path d="M275.83,39.71c.68-.74,1.35-1.48,2.11-2.3,1.61,1.33,3.26,2.69,6.16,5.09-4.07-.44-6.7-.72-9.32-1l-.05,.06,.57-1.3-.03,.05h.6v-.66l-.04,.05Z" style="fill: #e08220;"/>
    <path d="M306.4,13.55c10.39-3.04,16.42-3.23,21.35,2.79-5.06-5.5-11.26-4-21.35-2.79Z" style="fill: #1b789d;"/>
    <path d="M230.54,45.81c-5.37-2.74-10.35-6.99-16.95-5.03,6.59-1.94,12.17-.04,16.91,5.07l.04-.04Z" style="fill: #1b789d;"/>
    <path d="M271.78,39.4c1-7.45,4.17-13.09,10.78-15.88-5.47,3.73-8.98,9.09-10.78,15.88Z" style="fill: #1b789d;"/>
    <path d="M262.52,32.13l-3.07-1.96c-1.5,1.2-3.01,2.41-4.53,3.62l-.9-.98c1.26-1.49,2.35-3.84,3.84-4.22,1.57-.4,3.53,1.09,5.32,1.76l-.66,1.78Z" style="fill: #e08220;"/>
    <path d="M238.4,24.12c1.85,0,4.07-.7,5.43,.2,1.37,.91,1.89,3.41,1.45,5.96-.48-1.25-.97-2.49-1.44-3.71l-5.43-.64v-1.8Z" style="fill: #e08220;"/>
    <path d="M283.46,74.71c-3.23-.91-6.45-1.83-9.61-2.72,.62-.75,1.23-1.48,1.83-2.22,2.59,1.64,5.19,3.29,7.78,4.94Z" style="fill: #1b789d;"/>
    <path d="M296.25,65.31c-5.65,.76-10.63,0-15.2-3,4.95,.98,9.89,1.95,15.2,3Z" style="fill: #e08220;"/>
    <path d="M144.07,13.58c3.28-2.24,6.67-2.14,10.36-.79-3.52,.41-6.79,.8-10.07,1.18-.1-.13-.2-.26-.29-.39Z" style="fill: #1b789d;"/>
    <path d="M245.51,131.98c2.14-1,3.65-1.71,5.6-2.62l-1.44,4.08-4.16-1.46Z" style="fill: #f4f4f5;"/>
    <path d="M274.77,41.51c-.57,.39-1.15,.78-3.02,2.05,2.02-3.33,3.26-5.36,5.08-8.35-.5,2.24-.75,3.37-1,4.5l.04-.05-.6,.66,.03-.05c-.19,.43-.38,.86-.57,1.3l.05-.06Z" style="fill: #e08220;"/>
    <path d="M180.91,75.67c-.49-2.31-.98-4.61-1.47-6.92l.99-.24,1.27,6.97-.79,.19Z" style="fill: #1b789d;"/>
    <path d="M150.87,70.96l-.51-1.77c1.88,1.18,3.76,2.36,5.64,3.54l-.18,.23-4.95-2.01Z" style="fill: #1b789d;"/>
    <path d="M320.85,66.54c1.73,.22,3.45,.44,5.18,.65l.17,.23c-2.09,2.28-3.9,1.06-5.68-.55,.11-.11,.22-.23,.33-.33Z" style="fill: #1b789d;"/>
    <path d="M238.82,13.24c1.62-.36,3.23-.73,.18-.04,3.11,0,1.44,0-.23,0l.04,.04Z" style="fill: #1b789d;"/>
    <path d="M211.75,48.25l2.8,2.91-.6,.65c-.8-1.09-1.6-2.18-2.41-3.27,.07-.1,.13-.19,.2-.28Z" style="fill: #1b789d;"/>
    <path d="M147.35,22.4c-.82,1.22-1.65,2.44-2.47,3.67l-.61-.51c.88-1.27,1.77-2.55,2.65-3.82l.43,.67Z" style="fill: #1b789d;"/>
    <path d="M231.16,46.33l2.93,2.99-.53,.59c-.9-1.08-1.8-2.16-2.71-3.24,.1-.11,.2-.23,.3-.35Z" style="fill: #1b789d;"/>
    <path d="M157.62,73.62c-.59,.15-1.18,.3-1.77,.45,0-.37-.02-.74-.03-1.11l.18-.23c1.41,.11,2.81,.22,6.46,.5-3.1,.25-3.97,.32-4.84,.39Z" style="fill: #1b789d;"/>
    <path d="M320.52,66.88c-.75-.37-1.49-.73,1.46,.72-2.46-2.27-1.8-1.66-1.14-1.05-.11,.11-.22,.22-.33,.33Z" style="fill: #1b789d;"/>
    <path d="M189.3,31.72l-1.15-2.09,.55-.4,1.2,2.06-.6,.43Z" style="fill: #1b789d;"/>
    <path d="M142.15,15.79l-1.63,1.97-.76-.81c.66-.55,1.32-1.09,1.98-1.64,.14,.16,.27,.32,.41,.48Z" style="fill: #1b789d;"/>
    <path d="M210.16,46.94c.53,.44,1.06,.87,1.59,1.31-.07,.09-.14,.19-.2,.28-.57-.41-1.13-.83-1.69-1.24,.1-.12,.2-.23,.31-.35Z" style="fill: #1b789d;"/>
    <path d="M150.37,69.19c-.37-.51-.74-1.02-1.11-1.53,.37,.51,.74,1.02,1.11,1.53Z" style="fill: #1b789d;"/>
    <path d="M237.13,14.45c-.32,.42-.63,.84-.07,.09-.78,.38-.34,.16,.1-.05l-.04-.04Z" style="fill: #1b789d;"/>
    <path d="M267.02,34.18v-1.27h-.02c.2,.11,.41,.22,.63,.34-.2,.31-.42,.61-.63,.9l.03,.03Z" style="fill: #1b789d;"/>
    <path d="M293.99,75.42c.02-.64,.05-1.28,.07-1.92-.02,.64-.05,1.28-.07,1.92Z" style="fill: #9188a4;"/>
    <path d="M250.75,53.55c.55-.21,1.1-.42,1.65-.63,.11,.15,.22,.29,.32,.44l-1.64,.64c-.11-.15-.22-.3-.33-.45Z" style="fill: #1b789d;"/>
    <path d="M143.26,14.59c-.37,.4-.74,.8-1.11,1.2-.14-.16-.27-.32-.41-.48,.41-.36,.82-.72,1.23-1.08,.1,.12,.19,.24,.29,.36Z" style="fill: #1b789d;"/>
    <path d="M267.01,32.91c-.11-.11-.21-.22-.33-.33,.1,.12,.21,.23,.32,.34h.01Z" style="fill: #1b789d;"/>
    <path d="M142.97,14.23c.36-.22,.73-.43,1.09-.65,.1,.13,.19,.26,.29,.39-.37,.21-.73,.41-1.1,.62-.1-.12-.19-.24-.29-.36Z" style="fill: #1b789d;"/>
    <path d="M245.79,14.1l-1.54-1.03c1.21,.43,1.52,.54,1.83,.65-.1,.13-.2,.26-.29,.38Z" style="fill: #1b789d;"/>
    <path d="M249.75,54.6c.11-.26,.23-.52,.35-.78h.05c.09,.25,.17,.51,.25,.76-.22,0-.43,0-.65,.01Z" style="fill: #f4f4f5;"/>
    <path d="M238.78,13.2c-.07,.14-.14,.28-.05,.09-.2,.12-.06,.03,.09-.05l-.04-.04Z" style="fill: #1b789d;"/>
    <path d="M209.55,46.4c.2,.18,.4,.37,.6,.55-.1,.12-.2,.23-.31,.35-.16-.23-.33-.46-.49-.7l.19-.2Z" style="fill: #1b789d;"/>
    <path d="M230.5,45.85c.22,.16,.44,.32,.66,.48-.1,.12-.2,.23-.3,.35-.11-.29-.21-.58-.32-.87l-.04,.04Z" style="fill: #1b789d;"/>
    <path d="M237.17,14.49c.07-.15,.14-.29,.04-.09,.21-.13,.07-.04-.08,.05l.04,.04Z" style="fill: #1b789d;"/>
    <path d="M200.12,42.74l-.19-.13c.05,.06,.1,.12,.15,.17l.05-.05Z" style="fill: #1b789d;"/>
    <path d="M250.4,54.59c-.08-.26-.17-.52-.25-.77,.2-.09,.41-.17,.61-.26,.11,.15,.22,.3,.33,.44l-.75,.47,.06,.12Z" style="fill: #1b789d;"/>
    <path d="M82.89,213.18c.09,.11,.18,.23,.06,.07,.01,.16,0,.03,0-.11l-.05,.04Z" style="fill: #9188a4;"/>
    <path d="M235.51,154.76c-3.35,1.23-6.44,2.38-9.81,3.62,.46-2.29,.92-4.57,1.41-7.01l3.17,.34,5.22,3.05Z" style="fill: #050d12;"/>
    <path d="M250.29,141.93c-.04-.22-.08-.43-.02-.1,.03-.32,0-.1-.02,.14l.03-.04Z" style="fill: #050d12;"/>
    <polygon points="220.42 170.22 220.23 170.21 220.32 169.95 220.42 170.22" style="fill: #050d12;"/>
    <polygon points="231.6 171.8 231.58 171.61 231.81 171.7 231.6 171.8" style="fill: #050d12;"/>
    <path d="M249.75,54.6c.22,0,.43,0,.65-.01l-.06-.12c.37,1,.74,2,1.13,3.03,2.92-1.72,4.3,.51,5.98,2.32,2.36-1.59,4.75-3.21,7.15-4.82,1.12,2.94,2.23,5.89,3.35,8.83-1.4-.02-2.81-.05-4.21-.07-.53-.69-1.07-1.39-1.78-2.31-.7,.3-1.5,.63-1.11,.46-5.18-.5-9.21-.89-13.25-1.28-1.56-.43-3.11-.86-4.67-1.29-.38-2.24-.77-4.49-1.11-6.49l7.93,1.74Z" style="fill: #050d12;"/>
    <path d="M242.94,59.35c1.56,.43,3.11,.86,4.67,1.29-2.71,3.29-.11,6.38,.62,9.71l-2.98,.55c.27,.78,.5,1.43,.72,2.08-.9-.44-1.8-.87-2.7-1.31-.11-4.11-.22-8.22-.33-12.32Z" style="fill: #f4f4f5;"/>
    <path d="M243.27,71.67c.9,.44,1.8,.87,2.7,1.31,.42,.61,.85,1.21,1.41,2.02-1.48,.16-3.06,.33-4.65,.49,.18-1.28,.36-2.55,.54-3.82Z" style="fill: #050d12;"/>
    <path d="M405.77,101.81c-8.31-4.25-16.63-8.5-25.27-12.92,2.21-.93,4.23-1.77,6.51-2.73-.9-1.09-1.62-1.95-2.69-3.25h8.32c-.21-3.84-.4-7.28-.7-12.55,9.85,7,19.17,13.61,30.07,21.35-4.43-1.05-6.98-1.65-10.59-2.5,2.59,1.95,4.28,3.23,6.29,4.74-1.15,2.94-2.26,5.79-3.51,8.96-4.69-2.35-9.07-4.53-14.41-7.2,2.54,2.62,4.24,4.38,5.95,6.15l.03-.03Z" style="fill: #f4f4f5;"/>
    <path d="M398.56,130.71c1.33-.54,2.66-1.07,4.83-1.95-2.82,12.39-5.48,24.12-8.25,36.29-1.54-.73-2.49-1.19-3.6-1.72,.73-5.63,1.44-11.06,2.41-18.47-2.14,4.68-3.49,7.65-5.78,12.66,2.42-14.91,4.47-27.6,6.57-40.55-1.54-1.32-3.12-2.68-4.73-4.06v-10.91c5.56,4.34,11.62,7.21,14.27,14.95-1.79,4.37-3.73,9.08-5.66,13.8l-.1,.21,.06-.26Z" style="fill: #f4f4f5;"/>
    <path d="M283.02,134.5c-2.06-1.23-3.71-2.21-5.44-3.23-.99,1.91-1.83,3.55-3.05,5.92-2.83-13.76-5.5-26.71-8.66-42.06,3,4.96,4.83,7.97,7.1,11.71v-17.31c2.66,.75,4.91,1.39,7.69,2.17-1.18,.96-1.88,1.53-2.99,2.43,1.75,13.21,3.53,26.58,5.36,40.37Z" style="fill: #f4f4f5;"/>
    <path d="M355.28,104.21c.7,3.62,1.17,6.05,1.78,9.2,1.79-2.41,3.24-4.36,6.47-8.72-5.23,12.38-2.25,25.18-13.25,32.75,1.99-11.17,.06-22.12,5-33.23Z" style="fill: #f4f4f5;"/>
    <path d="M378.03,134.8c-8.37,3.87-16.68,7.71-25.36,11.72-1.17-2.24-2.24-4.3-3.58-6.86,5.41-1.04,9.92-4.94,15.61-2.23,.18-5.67,3.94-6.89,7.6-7.85,2.71-.71,4.52,1.01,5.73,5.21Z" style="fill: #f4f4f5;"/>
    <path d="M382.37,125.24c-1.32,.47-2.34,.82-3.83,1.35-.77-11.24-1.52-22.08-2.31-33.5,2.34,1.02,4.17,1.81,6.14,2.67v29.48Z" style="fill: #050d12;"/>
    <path d="M306.21,108.48c1.95-7.09,3.63-13.16,5.33-19.34,2.91-.27,6.34-.52,6.76,3.03,1.08,9.19-5.88,11.81-12.09,16.3Z" style="fill: #050d12;"/>
    <path d="M337.47,132.45v-14.36c2.99-1.17,5.72-2.23,8.82-3.44-.35,4.87-.65,9.23-.98,13.82-2.57,1.31-5.19,2.64-7.84,3.99Z" style="fill: #050d12;"/>
    <path d="M298.86,118.01c.7-7.07,1.33-13.39,2-20.17,1.62-1.11,3.45-2.36,6.61-4.53-3.38,8.88-1.02,18.25-8.61,24.7Z" style="fill: #f4f4f5;"/>
    <path d="M369.34,107.64c1.43-.34,2.66-.63,3.97-.94,.25-1.11,.48-2.14,1.23-5.5v24.63c-.41,.35-1.17,1-2.26,1.94-1.02-6.99-1.97-13.49-2.94-20.14Z" style="fill: #f4f4f5;"/>
    <path d="M365.19,131.26c-2.19,1.35-4.1,2.53-6.88,4.25,1.35-7.56,2.56-14.3,4.08-22.8,1.1,7.27,1.93,12.77,2.81,18.55Z" style="fill: #050d12;"/>
    <path d="M306.77,112.72c4.22-2.55,8.36-5.05,14.76-8.92-4.27,5.32-6.82,8.5-8.54,10.64-2.49,1.21-3.89,1.89-5.46,2.66l-.75-4.38Z" style="fill: #f4f4f5;"/>
    <path d="M334.4,97.78c.83-2.2,1.33-3.5,1.94-5.13,3.77-1.54,7.49-4.99,13.87-3.12-5.79,3.02-10.54,5.49-15.82,8.24Z" style="fill: #f4f4f5;"/>
    <path d="M343.53,109.49c-4.24,4.05-8.69,4.7-14.31,4.56,4.92-2.68,8.32-7.35,14.31-4.56Z" style="fill: #f4f4f5;"/>
    <path d="M381.46,74.68c1.25,1.79,2.37,3.4,4.77,6.84-3.78-2.32-5.84-3.58-8.61-5.28,1.9-.77,2.79-1.13,3.84-1.55Z" style="fill: #050d12;"/>
    <path d="M375.75,142.97c1.06-.48,1.98-.91,3.65-1.67l-1.81,9.53c-.83-3.53-1.3-5.53-1.85-7.86Z" style="fill: #f4f4f5;"/>
    <path d="M388.23,172.06c3.3,4.51,.97,7.42-.51,10.41,.15-3.08,.3-6.16,.51-10.41Z" style="fill: #050d12;"/>
    <path d="M392.07,191.03c.47-5.23,.67-7.53,.93-10.41,2.48,3.12,.96,5.29-.93,10.41Z" style="fill: #050d12;"/>
    <path d="M276.7,135.59c3.22,2.21,2.44,4.42,1.57,7.99-.63-3.21-1.01-5.14-1.57-7.99Z" style="fill: #050d12;"/>
    <path d="M405.75,101.84c.25,.04,.49,.08,.08,.01,.32,.3,.13,.13-.05-.05l-.03,.03Z" style="fill: #f4f4f5;"/>
    <polygon points="307.67 85.42 307.72 85.57 307.58 85.54 307.67 85.42" style="fill: #f4f4f5;"/>
    <path d="M65.62,93.34c-3.26,1.06-5.12,1.66-8.6,2.78,13.11-8.07,24.73-15.21,36.4-22.4,2.28,1.88,4.33,3.57,6.75,5.56-2.12,1.91-4.04,3.64-6.48,5.84h6.39c-1.3,1.38-2.17,2.3-3.37,3.56,3.67,.44,6.91,.82,10.39,1.23l.18,3.23c-5.01,2.38-9.89,4.69-14.79,7.02-3.32-3.23-6.47-6.3-10.29-10.02,1.01,5.82,1.86,10.68,2.77,15.93-6.9,4.52-13.82,9.05-20.73,13.58l-1.25-2.23c1.26-1.91,2.53-3.82,4.21-6.37-3.86,.9-7.04,1.64-10.4,2.42-.82-1.03-1.65-2.09-2.54-3.21,.17-2.33,.34-4.66,.54-7.37,3.1-2.73,6.37-5.63,10.8-9.53Z" style="fill: #f4f4f5;"/>
    <path d="M74.04,135.67c.54,.65,1.09,1.31,2.15,2.58-.84-6.89-1.58-13.03-2.36-19.42,3.67-.6,6.99-1.14,10.83-1.77,1.56,22.21,3.1,44.08,4.72,67.21-1.94-4.72-3.43-8.35-5.17-12.57-1.5,3.23-2.79,5.99-4.6,9.88-1.94-16.02-3.75-30.98-5.56-45.94l-.03,.03Z" style="fill: #f4f4f5;"/>
    <path d="M120.39,131.73c.26-15.91,18.85-32.92-4.01-46.26l3.65-2.89-5.86-1.47c6.09-1.47,8.81-6.27,13.7,2.88,9.66,18.11-.13,32.39-3.13,48.76l-4.35-1.03Z" style="fill: #f4f4f5;"/>
    <path d="M116.78,126.58c-.5-10.71-.92-19.57-1.34-28.57,2.79-1.7,6.31-3.7,8.12-.07,5.43,10.92-1.5,18.76-6.78,28.64Z" style="fill: #050d12;"/>
    <path d="M133.81,157.03c2.98,1.11,5.01,1.86,9.51,3.54-8.72-1-14.85-1.7-25.98-2.98,8.64-2.02,12.19-2.85,17.69-4.13-6.18-.45-10.45-.77-15.08-1.11-.32-3.18-.62-6.16-.98-9.79,8.35,4.03,16.22,7.83,25.1,12.11-3.78,.87-6.5,1.49-10.25,2.36Z" style="fill: #f4f4f5;"/>
    <path d="M115.4,148.64c-2.67-14.01-10.17-27.61-6.02-42.39,.07,0-1.12,.15-4.93,.65,2.56-1.24,3.02-1.38,3.41-1.66,1.21-.89,2.39-1.83,4.19-3.23,1.15,15.96,2.26,31.29,3.36,46.63Z" style="fill: #f4f4f5;"/>
    <path d="M86.49,197.55c-1.98-8.03-4.37-10.97-1.02-15.21,.26,3.95,.47,7.06,1.02,15.21Z" style="fill: #050d12;"/>
    <path d="M81.79,202.45c-1.87-6.38-3.68-8.57-1.05-11.9,.27,3.03,.47,5.36,1.05,11.9Z" style="fill: #050d12;"/>
    <path d="M74.07,135.65c-.14-.18-.28-.36-.04-.06-.07-.41-.03-.16,.02,.09l.03-.03Z" style="fill: #f4f4f5;"/>
    <path d="M143.3,101.33h6.72c.21,1.88,.41,3.67,1,9.06,1.4-7.81,2.16-12.08,3.45-19.29-.69,16.21-1.26,29.45-1.83,42.86-.78,.41-1.48,.78-2.71,1.43-.38-3.02-.71-5.65-1.27-10.18-.74,5.5-1.23,9.17-1.93,14.39-1.22-13.69-2.31-25.78-3.42-38.27Z" style="fill: #f4f4f5;"/>
    <path d="M200.13,127.64c3.9,2.09,7.81,4.19,12.38,6.64-2.18,1.47-3.42,2.3-4.77,3.2-3.57-2.12-7.12-4.22-10.84-6.42l1.3-3.92c.67,.21,1.25,.4,1.84,.58,.09,.25,.17,.5-.12-.37,.52,.71,.37,.5,.21,.29Z" style="fill: #f4f4f5;"/>
    <path d="M167.07,86.6l-1.2,3.68,2.02-.42c.15,2.37,.29,4.58,.46,7.22-1.64,1.33-3.44,2.78-5.64,4.56-.5-6.21-1.36-11.82,4.17-15.26l.19,.22Z" style="fill: #f4f4f5;"/>
    <path d="M167.5,85.84c.08-.1,.15-.2,.1-.13,.07-.05-.03,.02-.13,.1l.03,.03Z" style="fill: #f4f4f5;"/>
    <path d="M166.88,86.38c.2-.18,.41-.36,.61-.55l-.03-.03c-.13,.26-.27,.53-.4,.79l-.19-.21Z" style="fill: #f4f4f5;"/>
    <path d="M243.18,108.34c.27-3.63,.48-6.49,.77-10.45,1.62,.68,3.83,.95,4.04,1.81,.99,4.11-2.06,5.87-4.81,8.64Z" style="fill: #050d12;"/>
    <path d="M220.67,82.27c-.48,.22-.96,.45,2.72-1.26-3.87,1.28-3.4,1.13-2.94,.98,.07,.1,.15,.19,.22,.28Z" style="fill: #050d12;"/>
    <path d="M264.6,55c-2.4,1.62-4.8,3.24-7.15,4.82-1.68-1.81-3.06-4.04-5.98-2.32-.38-1.03-.76-2.03-1.13-3.03,.25-.16,.5-.32,.75-.47l1.64-.64c3.64-.4,7.52,2.43,11.08-1.63,.35,1.42,.57,2.35,.8,3.27Z" style="fill: #f4f4f5;"/>
    <path d="M157.29,31.6c-.05-.14-.09-.28,0,.09,.04-.37,.03-.23,0-.09Z" style="fill: #050d12;"/>
    <path d="M156.62,29.62l1.88,2.73c-1.88-1.9-2.07-2.1-2.27-2.29,.13-.14,.26-.29,.39-.43Z" style="fill: #050d12;"/>
    <path d="M274.72,41.56c.19-.43,.38-.86,.57-1.3-.19,.43-.38,.86-.57,1.3Z" style="fill: #050d12;"/>
    <path d="M275.26,40.32l.6-.66v.66h-.6Z" style="fill: #050d12;"/>
    <path d="M398.56,130.71l-.06,.26,.1-.21-.04-.04Z" style="fill: #9188a4;"/>
    <path d="M200.13,127.64c.16,.21,.31,.42-.21-.29,.29,.87,.21,.62,.12,.37l.09-.08Z" style="fill: #9188a4;"/>
  </g>
</svg>